<svg id="question-mark" xmlns="http://www.w3.org/2000/svg" width="32" height="32"><path d="M15.992 7c.96 0 1.784.176 2.472.528.704.336 1.232.792 1.584 1.368.352.576.528 1.192.528 1.848 0 .624-.112 1.16-.336 1.608a3.336 3.336 0 0 1-.768 1.056c-.304.272-.712.592-1.224.96-.672.464-1.176.896-1.512 1.296-.336.384-.504.904-.504 1.56v1.08h-2.184v-1.2c0-.688.112-1.272.336-1.752.24-.48.52-.864.84-1.152.32-.288.744-.616 1.272-.984.608-.4 1.056-.76 1.344-1.08.288-.32.432-.736.432-1.248 0-.656-.216-1.16-.648-1.512-.432-.368-1.024-.552-1.776-.552-1.28 0-2.392.576-3.336 1.728L11 9.376C12.344 7.792 14.008 7 15.992 7ZM15.2 20.776c.48 0 .88.16 1.2.48.32.32.48.712.48 1.176 0 .464-.16.864-.48 1.2-.32.32-.72.48-1.2.48a1.6 1.6 0 0 1-1.176-.48 1.68 1.68 0 0 1-.48-1.2c0-.464.16-.856.48-1.176a1.6 1.6 0 0 1 1.176-.48Z"/></svg>