<svg id="link" xmlns="http://www.w3.org/2000/svg" width="32" height="32"><path fill-rule="evenodd" d="M20.707 11.121a1 1 0 0 0-1.414 0l-.354.354a1 1 0 0 1-1.414-1.414l.354-.354a3 3 0 0 1 4.242 0l.707.707a3 3 0 0 1 0 4.243l-4.242 4.242a2.5 2.5 0 0 1-3.536 0 1 1 0 1 1 1.415-1.414.5.5 0 0 0 .707 0l4.242-4.242a1 1 0 0 0 0-1.415l-.707-.707Z" clip-rule="evenodd"/><path fill-rule="evenodd" d="M11.868 21.374a1 1 0 0 0 1.414 0l.354-.353a1 1 0 0 1 1.414 1.414l-.354.354a3 3 0 0 1-4.242 0l-.707-.708a3 3 0 0 1 0-4.242l3.889-3.89a3 3 0 0 1 4.242 0l.354.354a1 1 0 1 1-1.414 1.414l-.354-.353a1 1 0 0 0-1.414 0l-3.889 3.89a1 1 0 0 0 0 1.413l.707.707Z" clip-rule="evenodd"/></svg>