<svg width="663" height="251" viewBox="0 0 663 251" fill="none" xmlns="http://www.w3.org/2000/svg">
<path d="M639.791 104.714C631.52 97.2201 618.091 89.4931 597.324 89.6215C562.823 89.8346 549.137 109.091 544.901 118.204C541.1 128.135 541.059 139.368 545.982 150.359C551.135 161.863 560.587 168.024 569.334 171.589C577.008 174.716 585.756 176.463 592.781 177.866C593.368 177.983 593.942 178.097 594.503 178.21C602.618 179.844 608.633 181.219 613.28 183.373C617.42 185.291 619.193 187.242 620.17 189.634C621.814 193.661 621.404 197.161 619.688 200.597C618.998 201.979 618.097 203.322 617.051 204.579L636.006 229.773C636.23 229.61 636.45 229.448 636.666 229.287C638.103 228.212 639.5 227 640.509 226.114C650.704 214.549 657.812 197.408 649.714 177.58C644.841 165.646 635.821 158.664 626.705 154.439C618.097 150.45 608.392 148.472 600.804 146.944L600.137 146.81C592.054 145.184 586.135 143.993 581.384 142.056C576.936 140.244 575.686 138.618 575.108 137.328C572.939 132.486 574.035 124.488 585.366 120.047C600.274 114.204 617.742 120.711 624.104 137.173L651.134 119.54C650 117.313 648.759 115.194 647.418 113.182C645.593 110.678 643.084 107.696 639.791 104.714Z" fill="white"/>
<path d="M536.341 212.847C535.845 212.119 535.451 211.504 535.158 211.028C534.903 210.617 534.605 210.183 534.5 210C534.514 210.026 534.48 209.964 534.5 210C534.51 210.018 534.476 209.958 534.5 210C534.096 209.297 534.056 209.085 534 209L560.939 192.344C569.576 205.633 585.17 213.163 599.587 212.179L618.965 237.934C611.924 240.312 603.256 241.949 592.681 241.999C580.323 242.058 570.17 239.188 561.986 235.134C551.91 229.681 543.04 222.025 536.341 212.847Z" fill="white"/>
<path d="M519.036 43.9942C519.036 55.4924 509.511 64.8136 497.762 64.8136C486.012 64.8136 476.488 55.4924 476.488 43.9942C476.488 32.496 486.012 23.1748 497.762 23.1748C509.511 23.1748 519.036 32.496 519.036 43.9942Z" fill="white"/>
<path d="M481.806 93.1635H513.718V238.456H481.806V93.1635Z" fill="white"/>
<path d="M414.498 9H446.409V156.951H414.498V156.642C410.367 135.592 392.292 119.741 370.619 119.741C348.841 119.741 330.695 135.747 326.681 156.951H294.429C298.617 119.046 329.345 89.6198 366.631 89.6198C384.963 89.6198 401.71 96.7337 414.498 108.472V9Z" fill="white"/>
<path d="M294.429 174.669C298.617 212.574 329.345 242 366.631 242C384.963 242 401.71 234.886 414.498 223.148V238.456H446.409V174.669H414.498V174.977C410.367 196.028 392.292 211.878 370.619 211.878C348.841 211.878 330.695 195.873 326.681 174.669H294.429Z" fill="white"/>
<path d="M143.786 93.1636H175.697V152.42C175.75 156.423 175.726 160.867 175.697 165.02V178.324C175.804 183.541 176.107 187.806 176.77 191.459C177.543 195.718 178.718 198.619 180.237 200.824C180.352 200.991 180.474 201.16 180.601 201.33L161.146 227.158C158.424 224.664 156.026 221.92 153.955 218.912C149.186 211.991 146.704 204.495 145.371 197.151C144.349 191.521 143.957 185.694 143.815 179.985H143.786V178.676C143.764 177.518 143.751 176.364 143.744 175.219C143.723 171.603 143.752 168.45 143.78 165.319L143.786 164.732V93.1636Z" fill="white"/>
<path d="M175.996 237.127C186.355 241.83 200.138 242.888 212.878 241.337C217.388 240.585 220.838 240.005 224.941 238.206C230.53 235.756 235.521 232.316 239.485 227.69C239.486 227.876 239.486 227.996 239.487 228.048C240.336 235.135 240.372 238.679 240.372 238.679H272.269C272.269 238.679 272.269 226.598 271.502 210.883C271.426 209.335 271.384 207.822 271.384 206.27C271.384 194.299 271.385 137.699 271.385 93.3855H239.486C239.486 93.3855 239.476 131.314 239.473 166.918H239.471C239.471 187.295 234.139 197.547 224.207 204.728C215.917 210.153 204.914 211.566 196.309 210.157L175.996 237.127Z" fill="white"/>
<path d="M9 93.1636V238.456H41.7978V124.171H119.803V93.1636H9Z" fill="white"/>
<path d="M9 9V75.4449H41.7978V41.7795H121.576V9H9Z" fill="white"/>
</svg>
