<svg width="645" height="233" viewBox="0 0 645 233" fill="none" xmlns="http://www.w3.org/2000/svg">
<g clip-path="url(#clip0_121_4416)">
<path d="M630.791 95.7143C622.52 88.22 609.091 80.493 588.324 80.6214C553.823 80.8345 540.137 100.091 535.901 109.203C532.1 119.135 532.059 130.368 536.982 141.359C542.135 152.863 551.587 159.024 560.334 162.589C568.008 165.716 576.756 167.463 583.781 168.866C584.368 168.983 584.942 169.097 585.503 169.21C593.618 170.844 599.633 172.219 604.28 174.373C608.42 176.291 610.193 178.242 611.17 180.633C612.814 184.661 612.404 188.161 610.688 191.597C609.998 192.979 609.097 194.322 608.051 195.579L627.006 220.773C627.23 220.61 627.45 220.448 627.666 220.287C629.103 219.212 630.5 218 631.509 217.113C641.704 205.549 648.812 188.408 640.714 168.58C635.841 156.646 626.821 149.664 617.705 145.439C609.097 141.45 599.392 139.472 591.804 137.944L591.137 137.81C583.054 136.184 577.135 134.993 572.384 133.056C567.936 131.244 566.686 129.618 566.108 128.328C563.939 123.486 565.035 115.488 576.366 111.047C591.274 105.204 608.742 111.711 615.104 128.173L642.134 110.539C641 108.313 639.759 106.194 638.418 104.182C636.593 101.678 634.084 98.6963 630.791 95.7143Z" fill="black"/>
<path d="M527.341 203.847C526.845 203.119 526.451 202.504 526.158 202.028C525.903 201.617 525.605 201.183 525.5 201C525.514 201.026 525.48 200.964 525.5 201C525.51 201.018 525.476 200.958 525.5 201C525.096 200.297 525.056 200.085 525 200L551.939 183.344C560.576 196.633 576.17 204.163 590.587 203.179L609.965 228.934C602.924 231.312 594.256 232.949 583.681 232.999C571.323 233.058 561.17 230.188 552.986 226.134C542.91 220.681 534.04 213.025 527.341 203.847Z" fill="black"/>
<path d="M510.036 34.9943C510.036 46.4925 500.511 55.8136 488.762 55.8136C477.012 55.8136 467.488 46.4925 467.488 34.9943C467.488 23.496 477.012 14.1749 488.762 14.1749C500.511 14.1749 510.036 23.496 510.036 34.9943Z" fill="black"/>
<path d="M472.806 84.1635H504.717V229.456H472.806V84.1635Z" fill="black"/>
<path d="M405.498 0H437.409V147.951H405.498V147.642C401.367 126.592 383.292 110.741 361.619 110.741C339.841 110.741 321.695 126.747 317.681 147.951H285.429C289.617 110.046 320.345 80.6198 357.631 80.6198C375.963 80.6198 392.71 87.7337 405.498 99.4715V0Z" fill="black"/>
<path d="M285.429 165.669C289.617 203.574 320.345 233 357.631 233C375.963 233 392.71 225.886 405.498 214.148V229.456H437.409V165.669H405.498V165.977C401.367 187.028 383.292 202.878 361.619 202.878C339.841 202.878 321.695 186.873 317.681 165.669H285.429Z" fill="black"/>
<path d="M134.786 84.1635H166.697V143.42C166.75 147.423 166.726 151.867 166.697 156.02V169.324C166.804 174.541 167.107 178.806 167.77 182.459C168.543 186.718 169.718 189.619 171.237 191.824C171.352 191.991 171.474 192.16 171.601 192.33L152.146 218.158C149.424 215.664 147.026 212.919 144.955 209.912C140.186 202.991 137.704 195.495 136.371 188.151C135.349 182.521 134.958 176.694 134.815 170.985H134.786V169.676C134.764 168.517 134.751 167.364 134.744 166.219C134.723 162.603 134.752 159.45 134.78 156.319L134.786 155.732V84.1635Z" fill="black"/>
<path d="M166.996 228.126C177.355 232.83 191.138 233.888 203.878 232.336C208.388 231.585 211.838 231.005 215.941 229.206C221.53 226.756 226.521 223.316 230.485 218.69C230.486 218.876 230.486 218.996 230.487 219.047C231.336 226.135 231.372 229.679 231.372 229.679H263.269C263.269 229.679 263.269 217.598 262.502 201.883C262.426 200.335 262.384 198.822 262.384 197.27C262.384 185.299 262.385 128.699 262.385 84.3854H230.486C230.486 84.3854 230.476 122.314 230.473 157.918H230.471C230.471 178.295 225.139 188.547 215.207 195.728C206.917 201.153 195.914 202.566 187.309 201.157L166.996 228.126Z" fill="black"/>
<path d="M0 84.1635V229.456H32.7978V115.171H110.803V84.1635H0Z" fill="black"/>
<path d="M0 0V66.4449H32.7978V32.7795H112.576V0H0Z" fill="black"/>
</g>
<defs>
<clipPath id="clip0_121_4416">
<rect width="645" height="233" fill="white"/>
</clipPath>
</defs>
</svg>
