<svg id="code" xmlns="http://www.w3.org/2000/svg" width="32" height="32"><path d="m7.563 16.277 3.755 2.464c.15.107.256.203.32.299a.609.609 0 0 1 .096.341.66.66 0 0 1-.086.352.304.304 0 0 1-.256.128.524.524 0 0 1-.16-.032c-.053-.032-.138-.074-.245-.149l-4.064-2.71c-.01 0-.032-.01-.053-.031-.31-.203-.47-.427-.47-.662 0-.234.15-.458.46-.661.031-.021.052-.032.063-.043l4.064-2.666c.096-.054.17-.107.235-.128.064-.022.117-.043.17-.043.107 0 .192.043.246.128a.53.53 0 0 1 .096.33.645.645 0 0 1-.096.353.971.971 0 0 1-.32.298l-3.755 2.432ZM14.508 20.235c-.107.245-.214.416-.31.501a.484.484 0 0 1-.341.128.484.484 0 0 1-.352-.15.468.468 0 0 1-.15-.362c0-.043.011-.085.022-.139.01-.053.032-.106.053-.16l4.555-7.669c.117-.256.224-.427.32-.512a.488.488 0 0 1 .33-.139c.15 0 .267.054.374.15.107.096.15.213.15.352 0 .042-.011.085-.022.128a.537.537 0 0 1-.053.138l-4.576 7.734ZM24.875 16.277l-3.744-2.432a1.164 1.164 0 0 1-.33-.298.609.609 0 0 1-.097-.342c0-.138.032-.256.085-.33a.286.286 0 0 1 .246-.128c.053 0 .106.01.17.042.064.022.14.075.235.139l4.064 2.667c.01.01.032.021.064.042.31.192.459.416.459.662 0 .234-.15.458-.448.661a.608.608 0 0 1-.075.043l-4.064 2.709-.021.01c-.182.107-.31.171-.384.171a.286.286 0 0 1-.246-.128c-.064-.085-.085-.202-.085-.352 0-.128.032-.234.096-.341.064-.096.17-.203.33-.299l3.745-2.496Z"/></svg>