<svg id="arrow-big" xmlns="http://www.w3.org/2000/svg" width="32" height="32"><mask id="a" width="16" height="18" x="8" y="7" maskUnits="userSpaceOnUse" style="mask-type:luminance"><path fill-rule="evenodd" d="M8.533 7.466h14.923v17.068H8.533V7.466Z" clip-rule="evenodd"/></mask><g mask="url(#a)"><path fill-rule="evenodd" d="M15.925 24.534a1.6 1.6 0 0 1-1.6-1.6v-9.93l-3.06 3.064a1.596 1.596 0 0 1-2.259.005 1.598 1.598 0 0 1-.011-2.258l5.792-5.87c.315-.322.75-.495 1.174-.478.39-.016.858.161 1.166.47l5.861 5.87a1.6 1.6 0 1 1-2.264 2.26l-3.2-3.202v10.07a1.6 1.6 0 0 1-1.6 1.6L36.267 16" clip-rule="evenodd"/></g></svg>