<svg id="calendar" xmlns="http://www.w3.org/2000/svg" width="32" height="32"><mask id="a" width="16" height="17" x="8" y="8" maskUnits="userSpaceOnUse" style="mask-type:luminance"><path fill-rule="evenodd" d="M23.467 24.533H8.534v-16h14.933v16Z" clip-rule="evenodd"/></mask><g mask="url(#a)"><path fill-rule="evenodd" d="M22.394 24.533c.552 0 1.073-.813 1.073-1.365v-12.8c0-.553-.52-.768-1.073-.768H19.2V8.533h-1.066V9.6h-4.267V8.533H12.8V9.6H9.594c-.518 0-1.06.244-1.06.768v12.8c0 .553.507 1.365 1.06 1.365h12.8ZM9.6 10.667h3.2v1.066h1.067v-1.066h4.267v1.066H19.2v-1.066h3.2V12.8H9.6v-2.133Zm0 3.2h12.8v8.868c0 .276-.163.732-.44.732h-12c-.275 0-.36-.456-.36-.732v-8.868Zm4.267 5.333h-2.133v2.133h2.133V19.2Zm0-3.2h-2.133v2.133h2.133V16Zm3.2 3.2h-2.134v2.133h2.133V19.2Zm0-3.2h-2.134v2.133h2.133V16Zm3.2 3.2h-2.133v2.133h2.133V19.2Zm0-3.2h-2.133v2.133h2.133V16Z" clip-rule="evenodd"/></g></svg>