<svg xmlns="http://www.w3.org/2000/svg" class="hidden"  preserveAspectRatio="xMidYMin" viewBox="0 0 32 32" id="double-chevron-left">
	<path d="M15.425 21a.572.572 0 0 0 .407-.979L11.296 15.5l4.536-4.521a.572.572 0 0 0-.407-.979.579.579 0 0 0-.407.168l-4.783 4.768a.795.795 0 0 0 0 1.128l4.783 4.768c.112.111.26.168.407.168Z"/>
	<path d="M21.425 21a.572.572 0 0 0 .407-.979L17.296 15.5l4.536-4.521a.572.572 0 0 0-.407-.979.579.579 0 0 0-.407.168l-4.783 4.768a.795.795 0 0 0 0 1.128l4.783 4.768c.112.111.26.168.407.168Z"/>
</svg>