<svg id="eye" xmlns="http://www.w3.org/2000/svg" width="32" height="32"><path fill-rule="evenodd" d="M15.75 10.23c1.451-.01 2.894.21 4.274.654l.14.045.094.114a5.737 5.737 0 1 1-8.87 0l.387.317-.151-.476a13.863 13.863 0 0 1 4.127-.653Zm-3.68 1.562a4.737 4.737 0 1 0 7.505-.001 12.596 12.596 0 0 0-3.817-.56h-.001c-1.25.007-2.492.196-3.686.56Z" clip-rule="evenodd"/><path d="M15.807 12.01a2.667 2.667 0 1 0 2.667 2.667 2.656 2.656 0 0 0-2.667-2.666Z"/><path fill-rule="evenodd" d="M6.307 15.915Zm.143-.235a7.3 7.3 0 0 1 .34-.478 9.683 9.683 0 0 1 1.62-1.638c1.49-1.19 3.854-2.397 7.344-2.397s5.854 1.206 7.344 2.397a9.686 9.686 0 0 1 1.62 1.638c.148.192.26.356.34.478a7.37 7.37 0 0 1-.341.478 9.715 9.715 0 0 1-1.623 1.638c-1.491 1.191-3.856 2.397-7.34 2.397-3.485 0-5.849-1.206-7.34-2.397a9.717 9.717 0 0 1-1.623-1.638 7.327 7.327 0 0 1-.34-.478Zm19.192 0c.442-.234.442-.234.441-.235v-.002l-.003-.005-.008-.014a3.061 3.061 0 0 0-.136-.227 8.103 8.103 0 0 0-.426-.605 10.678 10.678 0 0 0-1.788-1.81c-1.646-1.315-4.226-2.615-7.968-2.615s-6.322 1.3-7.968 2.616a10.678 10.678 0 0 0-1.788 1.809 8.111 8.111 0 0 0-.533.781 3.033 3.033 0 0 0-.029.05l-.008.015-.002.005-.001.002.44.235-.44-.234-.125.235.124.234.442-.235-.442.235.001.001.001.002.003.004.008.015a3.798 3.798 0 0 0 .135.226c.095.15.236.358.428.606.383.496.969 1.153 1.79 1.808 1.647 1.316 4.227 2.616 7.964 2.616s6.316-1.3 7.964-2.616a10.719 10.719 0 0 0 1.79-1.808 8.113 8.113 0 0 0 .535-.782l.028-.05.008-.015.003-.004v-.002s.001-.001-.44-.236Zm0 0 .441.235.125-.234-.125-.236-.441.235Z" clip-rule="evenodd"/></svg>