<svg width="32" height="32" class="hidden" preserveAspectRatio="xMidYMin" xmlns="http://www.w3.org/2000/svg" viewBox="0 0 32 32" id="print">
    <path d="m20.3 22.5-10.7.1v-6c0-.2.1-.3.2-.3h10.3c.1 0 .2.1.2.3v5.9ZM9.6 7.5h10.7v1.7H9.6V7.5Zm11.8 15.1v-1.9c.1 0 .2.1.3.1h1.1c.7 0 1.2-.6 1.2-1.3v-7.8c0-1.3-1-2.4-2.2-2.4h-.4V7.4c0-.5-.5-.9-1-.9H9.6c-.6 0-1 .4-1 .9v1.9h-.4C7 9.3 6 10.4 6 11.7v7.7c0 .7.6 1.3 1.2 1.3h1.3v1.9c0 .5.5.9 1 .9h10.7c.7 0 1.2-.4 1.2-.9Z"></path>
    <path d="M11.1 18.8h7.8v-1h-7.8v1ZM11.1 21.4h7.8v-1h-7.8v1Z"></path>
</svg>
