<svg id="place-ring-fill" xmlns="http://www.w3.org/2000/svg" width="32" height="32" fill="none"><path fill="#fff" d="M29 16c0 7.18-5.82 13-13 13S3 23.18 3 16 8.82 3 16 3s13 5.82 13 13Z"/><path fill="#1076DB" fill-rule="evenodd" d="M16 28c6.627 0 12-5.373 12-12S22.627 4 16 4 4 9.373 4 16s5.373 12 12 12Zm0 1c7.18 0 13-5.82 13-13S23.18 3 16 3 3 8.82 3 16s5.82 13 13 13Z" clip-rule="evenodd"/><path fill="#1076DB" fill-rule="evenodd" d="M23.467 21.733c-.294 0-.533-.219-.533-.489V10.49c0-.27.238-.489.533-.489.294 0 .533.219.533.489v10.755c0 .27-.239.49-.533.49ZM20.11 15.49l-5.333-5.334a.534.534 0 0 0-.754.754l4.422 4.424H8.532a.533.533 0 1 0 0 1.066h9.913l-4.422 4.423a.534.534 0 0 0 .754.754l5.333-5.334a.534.534 0 0 0 0-.754Z" clip-rule="evenodd"/></svg>