<svg id="settings" xmlns="http://www.w3.org/2000/svg" width="32" height="32"><path fill-rule="evenodd" d="M23.819 16.768v-1.344a1.067 1.067 0 0 0-.864-1.067l-1.259-.181a6.1 6.1 0 0 0-.352-.864l.758-1.013c.32-.425.28-1.021-.096-1.398l-.95-.949a1.067 1.067 0 0 0-1.397-.107l-1.067.768a5.509 5.509 0 0 0-.853-.352l-.181-1.258a1.067 1.067 0 0 0-1.067-.918h-1.344a1.067 1.067 0 0 0-1.067.918L13.9 10.26c-.294.094-.58.211-.853.352l-1.067-.768a1.067 1.067 0 0 0-1.397.107l-.95.95a1.067 1.067 0 0 0-.096 1.397l.758 1.013c-.14.279-.257.567-.352.864l-1.259.181c-.53.075-.923.532-.917 1.067v1.344c-.006.535.387.992.917 1.067l1.259.181c.095.293.213.578.352.853l-.758 1.067a1.067 1.067 0 0 0 .096 1.387l.95.96c.376.376.973.417 1.397.096l1.067-.768c.271.149.557.27.853.362l.181 1.259c.075.53.532.923 1.067.917h1.29c.536.006.992-.387 1.067-.917l.182-1.259c.296-.092.581-.213.853-.362l1.067.768c.424.32 1.02.28 1.397-.096l.95-.96c.37-.375.41-.965.095-1.387l-.757-1.067c.14-.275.257-.56.352-.853l1.259-.181c.53-.075.922-.532.917-1.067Zm-7.2 4.181-.267 1.867h-.981l-.267-1.867-.757-.245a5.093 5.093 0 0 1-.672-.288l-.715-.352-1.504 1.13-.693-.693 1.13-1.514-.362-.704a5.236 5.236 0 0 1-.277-.672l-.246-.758-1.866-.266v-.982l1.866-.266.246-.758c.074-.23.167-.456.277-.672l.363-.714-1.131-1.504.693-.694 1.504 1.131.715-.363c.215-.113.44-.206.672-.277l.757-.245.267-1.867h.981l.267 1.867.757.245c.233.07.458.162.672.277l.715.363 1.504-1.13.693.693-1.13 1.504.362.714c.11.216.204.441.278.672l.245.758 1.867.266v.982l-1.867.266-.245.758a5.25 5.25 0 0 1-.278.672l-.362.704 1.13 1.514-.693.694-1.504-1.131-.715.352c-.216.114-.44.21-.672.288l-.757.245Z" clip-rule="evenodd"/><path fill-rule="evenodd" d="M13.152 16.096a2.667 2.667 0 1 1 5.334 0 2.667 2.667 0 0 1-5.334 0Zm4 0a1.333 1.333 0 1 0-2.667 0 1.333 1.333 0 0 0 2.667 0Z" clip-rule="evenodd"/></svg>