<svg id="archive" xmlns="http://www.w3.org/2000/svg" width="32" height="32"><path d="M25.429 11.83a.533.533 0 0 0-.533.533v10.304a1.6 1.6 0 0 1-1.6 1.6H9.78a1.6 1.6 0 0 1-1.6-1.6V12.363a.533.533 0 1 0-1.067 0v10.304a2.667 2.667 0 0 0 2.667 2.666h13.515a2.677 2.677 0 0 0 2.666-2.666V12.363a.533.533 0 0 0-.533-.534Z"/><path fill-rule="evenodd" d="M8 6.4h17.066a2.667 2.667 0 0 1 2.667 2.667v1.962h-22.4V9.067A2.667 2.667 0 0 1 8 6.4ZM6.4 9.963h20.266v-.896a1.6 1.6 0 0 0-1.6-1.6H8a1.61 1.61 0 0 0-1.6 1.6v.896ZM20.267 17.248c0 .784-.636 1.419-1.42 1.419H14.23a1.419 1.419 0 0 1-1.43-1.419v-.352c0-.79.64-1.43 1.43-1.43h4.619a1.43 1.43 0 0 1 1.419 1.43v.352Zm-6.4-.352v.352a.363.363 0 0 0 .362.352h4.619a.352.352 0 0 0 .352-.352v-.352a.363.363 0 0 0-.352-.363h-4.62a.363.363 0 0 0-.362.363Z" clip-rule="evenodd"/></svg>