<svg id="achievement" xmlns="http://www.w3.org/2000/svg" width="32" height="32"><path d="M24.373 12.384c-.277.894-.664 1.75-1.152 2.55a7.743 7.743 0 0 1-1.067-2.251 29.695 29.695 0 0 1 1.152-3.616 21.15 21.15 0 0 1 1.067 3.317ZM22.209 15.67a8.063 8.063 0 0 1-1.067 2.186 6.729 6.729 0 0 1-1.067-2.133 8.66 8.66 0 0 1 1.067-2.422c.49.722.85 1.523 1.067 2.368Z"/><path d="M24.064 17.888a10.932 10.932 0 0 1-2.9-.47 9.271 9.271 0 0 1 2.132-1.813c.984.023 1.96.177 2.902.459a9.526 9.526 0 0 1-2.134 1.824ZM22.73 20.267a9.804 9.804 0 0 1-2.634 1.066 9.826 9.826 0 0 1-2.496-1.365 9.802 9.802 0 0 1 2.634-1.067c.892.336 1.732.796 2.496 1.366ZM18.826 15.403c.347.778.549 1.613.598 2.464-.181.576-2.027 2.133-2.027 2.133a7.06 7.06 0 0 1-.597-2.475c.192-.608 2.026-2.122 2.026-2.122Z"/><path d="m18.112 19.339 3.307-1.664-2.496 2.282-4.587 2.592.416-1.216 3.36-1.994ZM7.66 12.576c.255.84.613 1.647 1.066 2.4.47-.648.83-1.369 1.067-2.133a29.196 29.196 0 0 0-1.067-3.467 21.546 21.546 0 0 0-1.067 3.2ZM9.792 15.67a8.064 8.064 0 0 0 1.067 2.186 6.73 6.73 0 0 0 1.066-2.133A8.663 8.663 0 0 0 10.86 13.3a7.56 7.56 0 0 0-1.067 2.368Z"/><path d="M7.936 17.888c.984-.025 1.96-.183 2.901-.47a9.27 9.27 0 0 0-2.133-1.813c-.983.023-1.959.177-2.901.459a9.525 9.525 0 0 0 2.133 1.824ZM11.904 21.333a9.825 9.825 0 0 0 2.496-1.365 9.802 9.802 0 0 0-2.635-1.067c-.891.336-1.732.796-2.495 1.366.821.481 1.709.84 2.634 1.066ZM13.174 15.403a7.062 7.062 0 0 0-.598 2.464c.181.576 2.027 2.133 2.027 2.133.347-.782.55-1.62.597-2.475-.192-.608-2.026-2.122-2.026-2.122Z"/><path d="m13.888 19.339-3.307-1.664 2.496 2.282 4.587 2.592-.406-1.216-3.37-1.994Z"/></svg>