<svg class="hidden" preserveAspectRatio="xMidYMin" xmlns="http://www.w3.org/2000/svg" viewBox="0 0 32 32" id="achievement">
    <path d="M22.85 11.61A10.6 10.6 0 0 1 21.77 14a7.26 7.26 0 0 1-1-2.11 27.849 27.849 0 0 1 1.08-3.39 19.827 19.827 0 0 1 1 3.11ZM20.82 14.69a7.56 7.56 0 0 1-1 2.05 6.31 6.31 0 0 1-1-2 8.12 8.12 0 0 1 1-2.27 7.088 7.088 0 0 1 1 2.22Z"></path>
    <path d="M22.56 16.77a10.252 10.252 0 0 1-2.72-.44 8.69 8.69 0 0 1 2-1.7 10.32 10.32 0 0 1 2.72.43 8.928 8.928 0 0 1-2 1.71ZM21.31 19a9.194 9.194 0 0 1-2.47 1 9.213 9.213 0 0 1-2.34-1.28 9.188 9.188 0 0 1 2.47-1A9.526 9.526 0 0 1 21.31 19ZM17.65 14.44a6.62 6.62 0 0 1 .56 2.31c-.17.54-1.9 2-1.9 2a6.62 6.62 0 0 1-.56-2.32c.18-.57 1.9-1.99 1.9-1.99Z"></path>
    <path d="m16.98 18.13 3.1-1.56-2.34 2.14-4.3 2.43.39-1.14 3.15-1.87ZM7.18 11.79c.24.788.575 1.544 1 2.25a6.87 6.87 0 0 0 1-2 27.373 27.373 0 0 0-1-3.25 20.199 20.199 0 0 0-1 3ZM9.18 14.69c.228.73.565 1.421 1 2.05a6.31 6.31 0 0 0 1-2 8.12 8.12 0 0 0-1-2.27 7.089 7.089 0 0 0-1 2.22Z"></path>
    <path d="M7.44 16.77a10.25 10.25 0 0 0 2.72-.44 8.687 8.687 0 0 0-2-1.7 10.32 10.32 0 0 0-2.72.43 8.93 8.93 0 0 0 2 1.71ZM11.16 20a9.211 9.211 0 0 0 2.34-1.28 9.185 9.185 0 0 0-2.47-1A9.527 9.527 0 0 0 8.69 19c.77.451 1.602.788 2.47 1ZM12.35 14.44a6.62 6.62 0 0 0-.56 2.31c.17.54 1.9 2 1.9 2 .326-.733.516-1.52.56-2.32-.18-.57-1.9-1.99-1.9-1.99Z"></path>
    <path d="m13.02 18.13-3.1-1.56 2.34 2.14 4.3 2.43-.38-1.14-3.16-1.87Z"></path>
</svg>
