<svg id="alert-fill" fill="none" xmlns="http://www.w3.org/2000/svg" width="32" height="32"><path fill="#fff" fill-rule="evenodd" d="m16.5 9.5 8 14h-16l8-14Z" clip-rule="evenodd"/><path fill="#B83C2E" fill-rule="evenodd" d="M15.634 9.5a1 1 0 0 1 1.73 0l7.5 13a1 1 0 0 1-.86 1.5h-15a1 1 0 0 1-.87-1.5l7.5-13Zm8.37 13.5-7.5-13-7.5 13h15Z" clip-rule="evenodd"/><circle fill="#B83C2E" cx="16.504" cy="20.75" r=".75"/><path fill="#B83C2E" d="M16.504 18.75a.75.75 0 0 1-.75-.75v-3a.75.75 0 0 1 1.5 0v3a.76.76 0 0 1-.75.75Z"/></svg>