<svg xmlns="http://www.w3.org/2000/svg" fill="none" viewBox="0 0 32 32" id="alert-fill"><path fill="#fff" d="M16.504 8a1 1 0 0 0-.87.5l-7.5 13a1 1 0 0 0 .87 1.5h15a1 1 0 0 0 .86-1.5l-7.5-13a1 1 0 0 0-.86-.5Z"/><circle cx="16.504" cy="19.75" r=".75" fill="#B83C2E"/><path fill="#B83C2E" fill-rule="evenodd" d="M15.634 8.5a1 1 0 0 1 1.73 0l7.5 13a1 1 0 0 1-.86 1.5h-15a1 1 0 0 1-.87-1.5l7.5-13Zm8.37 13.5-7.5-13-7.5 13h15Z" clip-rule="evenodd"/><path fill="#B83C2E" d="M16.504 17.75a.75.75 0 0 1-.75-.75v-3a.75.75 0 0 1 1.5 0v3a.76.76 0 0 1-.75.75Z"/></svg>