<svg  class="hidden" preserveAspectRatio="xMidYMin" xmlns="http://www.w3.org/2000/svg" ViewBox="0 0 32 32" id="alert-fill">
    <path d="M15.004 7.50001C14.6453 7.49858 14.3133 7.68937 14.134 8.00001L6.63397 21C6.45534 21.3094 6.45534 21.6906 6.63397 22C6.81332 22.3106 7.14529 22.5014 7.50397 22.5H22.504C22.8591 22.4979 23.1864 22.3076 23.364 22C23.5426 21.6906 23.5426 21.3094 23.364 21L15.864 8.00001C15.6864 7.69246 15.3591 7.50215 15.004 7.50001Z" fill="white"/>
    <circle cx="15.0039" cy="19.25" r="0.75" fill="#B83C2E"/>
    <path d="M14.134 8.00001C14.3133 7.68937 14.6453 7.49858 15.004 7.50001C15.3591 7.50215 15.6864 7.69246 15.864 8.00001L23.364 21C23.5426 21.3094 23.5426 21.6906 23.364 22C23.1864 22.3076 22.8591 22.4979 22.504 22.5H7.50397C7.14529 22.5014 6.81332 22.3106 6.63397 22C6.45534 21.6906 6.45534 21.3094 6.63397 21L14.134 8.00001ZM22.504 21.5L15.004 8.50001L7.50397 21.5H22.504Z" fill="#B83C2E"/>
    <path d="M15.0039 17.25C14.5897 17.25 14.2539 16.9142 14.2539 16.5V13.5C14.2539 13.0858 14.5897 12.75 15.0039 12.75C15.4181 12.75 15.7539 13.0858 15.7539 13.5V16.5C15.7485 16.912 15.4159 17.2446 15.0039 17.25Z" fill="#B83C2E"/>
</svg>
