<svg width="32" height="32" class="hidden" preserveAspectRatio="xMidYMin" xmlns="http://www.w3.org/2000/svg" viewBox="0 0 32 32" id="calendar">
    <path d="M20.994 23c.518 0 1.006-.762 1.006-1.28v-12c0-.518-.488-.72-1.006-.72H18V8h-1v1h-4V8h-1v1H8.995C8.51 9 8 9.229 8 9.72v12c0 .518.476 1.28.994 1.28h12ZM9 10h3v1h1v-1h4v1h1v-1h3v2H9v-2Zm0 3h12v8.314c0 .259-.152.686-.412.686H9.338C9.08 22 9 21.573 9 21.314V13Zm4 5h-2v2h2v-2Zm0-3h-2v2h2v-2Zm3 3h-2v2h2v-2Zm0-3h-2v2h2v-2Zm3 3h-2v2h2v-2Zm0-3h-2v2h2v-2Z"></path>
</svg>
