<svg class="hidden" preserveAspectRatio="xMidYMin" xmlns="http://www.w3.org/2000/svg" viewBox="0 0 32 32" id="code">
    <path d="m7.09 15.26 3.52 2.31c.14.1.24.19.3.28.06.09.09.2.09.32 0 .14-.03.25-.08.33-.06.08-.14.12-.24.12-.04 0-.09-.01-.15-.03-.05-.03-.13-.07-.23-.14l-3.81-2.54c-.01 0-.03-.01-.05-.03-.29-.19-.44-.4-.44-.62 0-.22.14-.43.43-.62.03-.02.05-.03.06-.04l3.81-2.5c.09-.05.16-.1.22-.12.06-.02.11-.04.16-.04.1 0 .18.04.23.12.06.08.09.18.09.31s-.03.23-.09.33a.91.91 0 0 1-.3.28l-3.52 2.28ZM13.6 18.97c-.1.23-.2.39-.29.47-.09.08-.19.12-.32.12s-.24-.05-.33-.14a.439.439 0 0 1-.14-.34c0-.04.01-.08.02-.13s.03-.1.05-.15l4.27-7.19c.11-.24.21-.4.3-.48.09-.08.19-.13.31-.13a.5.5 0 0 1 .35.14c.1.09.14.2.14.33 0 .04-.01.08-.02.12-.01.05-.03.09-.05.13l-4.29 7.25ZM23.32 15.26l-3.51-2.28c-.15-.1-.25-.19-.31-.28a.571.571 0 0 1-.09-.32c0-.13.03-.24.08-.31.06-.08.13-.12.23-.12.05 0 .1.01.16.04.06.02.13.07.22.13l3.81 2.5c.01.01.03.02.06.04.29.18.43.39.43.62 0 .22-.14.43-.42.62-.03.02-.05.03-.07.04l-3.81 2.54-.02.01c-.17.1-.29.16-.36.16-.1 0-.17-.04-.23-.12-.06-.08-.08-.19-.08-.33 0-.12.03-.22.09-.32.06-.09.16-.19.31-.28l3.51-2.34Z"></path>
</svg>
