<svg width="32" height="32" class="hidden" preserveAspectRatio="xMidYMin" xmlns="http://www.w3.org/2000/svg" viewBox="0 0 32 32" id="eye">
    <path d="M14.82,11.26a2.49,2.49,0,1,0,.02,0Z"/>
    <path d="M24.4814,14.466C24.374,14.2629,21.7705,9.5,14.77,9.5S5.1655,14.2629,5.0581,14.466l-.124.2344.1245.2344C5.1665,15.1374,7.78,19.9,14.77,19.9s9.604-4.7622,9.7114-4.9648l.125-.2344ZM12.0371,17.174a4.41,4.41,0,0,1-.7017-6.0923,12.0086,12.0086,0,0,1,3.4385-.5215,11.37,11.37,0,0,1,3.56.521,4.41,4.41,0,0,1-6.2969,6.0928ZM6.0825,14.6994A9.103,9.103,0,0,1,9.95,11.4836a5.3272,5.3272,0,0,0,2.8219,7.2649A9.5912,9.5912,0,0,1,6.0825,14.6994Zm10.9781,3.9935a5.3731,5.3731,0,0,0,2.6882-7.14,9.0583,9.0583,0,0,1,3.7092,3.146A9.5631,9.5631,0,0,1,17.0606,18.6929Z"/>
</svg>
