<svg id="fail" xmlns="http://www.w3.org/2000/svg" width="32" height="32"><path fill-rule="evenodd" d="M12.11 9.934a1.545 1.545 0 1 0-2.184 2.168l10.06 10.053c.284.289.67.454 1.075.461h.033c.4-.01.783-.171 1.07-.451l.007-.007.007-.007c.586-.6.586-1.557 0-2.157L12.11 9.934Z" clip-rule="evenodd"/><path fill-rule="evenodd" d="M20.093 9.724a1.553 1.553 0 0 1 2.194 2.17l-.028.035L12.02 22.162c-.289.282-.673.444-1.077.454h-.033a1.553 1.553 0 0 1-1.084-2.637l.006-.006L20.061 9.75l.032-.026Z" clip-rule="evenodd"/></svg>