<svg width="32" height="32" class="hidden" preserveAspectRatio="xMidYMin" xmlns="http://www.w3.org/2000/svg" viewBox="0 0 32 32" id="fail">
    <path class="a" d="M17.1088,15.0008l3.82-3.8213a1.4992,1.4992,0,0,0-.126-1.9956,1.5174,1.5174,0,0,0-2.0576-.0493l-3.7544,3.752-3.57-3.5641A1.4943,1.4943,0,0,0,8.79,9.9036a1.4615,1.4615,0,0,0,.4589,1.4512l3.638,3.6353-3.7092,3.707A1.503,1.503,0,0,0,10.2617,21.25a1.5524,1.5524,0,0,0,1.04-.44l3.7022-3.7033L18.7,20.8a1.49,1.49,0,0,0,1.0415.45h.0371a1.5656,1.5656,0,0,0,1.0469-.45,1.5064,1.5064,0,0,0-.0068-2.0947Z"/>
</svg>
