<svg class="hidden" preserveAspectRatio="xMidYMin" xmlns="http://www.w3.org/2000/svg" viewBox="0 0 32 32" id="link">
    <path class="a" d="M15.666,18.0432a1.755,1.755,0,0,1-1.2456-.5127l-1.5024-1.503a.5.5,0,0,1,.707-.707l1.502,1.5029A.7935.7935,0,0,0,16.2461,16.8l4.16-4.16a.7952.7952,0,0,0,.0215-1.1206l-1.8017-1.8a.7923.7923,0,0,0-1.1192.0225l-.9238.9243a.5.5,0,1,1-.707-.707L16.8,9.0344a1.7955,1.7955,0,0,1,2.5332-.022l1.8027,1.8008a1.797,1.797,0,0,1-.0224,2.5337l-4.16,4.16A1.8182,1.8182,0,0,1,15.666,18.0432Z"/>
    <path class="a" d="M12.06,21.6476a1.755,1.755,0,0,1-1.2461-.5127L9.0112,19.3342A1.7977,1.7977,0,0,1,9.0337,16.8l4.1606-4.16a1.7937,1.7937,0,0,1,2.5328-.0229L17.23,14.12a.5.5,0,0,1-.707.707L15.02,13.3239a.792.792,0,0,0-1.1186.023l-4.16,4.16a.7959.7959,0,0,0-.022,1.1211l1.8018,1.8a.7935.7935,0,0,0,1.1191-.0224l.9239-.9248a.5.5,0,0,1,.707.707l-.9238.9248A1.8178,1.8178,0,0,1,12.06,21.6476Z"/>
</svg>
