<svg width="32" height="32" class="hidden" preserveAspectRatio="xMidYMin" xmlns="http://www.w3.org/2000/svg" viewBox="0 0 32 32" id="lock-open">
    <path d="M10.5 14.59h9a1 1 0 0 1 1 1v6.5a1.5 1.5 0 0 1-1.5 1.5h-8a1.5 1.5 0 0 1-1.5-1.5v-6.5a1 1 0 0 1 1-1Zm8.5 8a.5.5 0 0 0 .5-.5v-6.5h-9v6.5a.51.51 0 0 0 .5.5h8Z"></path>
    <path d="M16.5 18.09a1.5 1.5 0 1 0-2.25 1.29v1.46a.75.75 0 1 0 1.5 0v-1.46a1.49 1.49 0 0 0 .75-1.29Z"></path>
    <path d="M11.5 15.1V10.93c0-1.83 1.601-3.431 3.5-3.431 1.898 0 3.5 1.602 3.5 3.431V11h-1v-.069C17.5 9.654 16.346 8.5 15 8.5s-2.5 1.154-2.5 2.431V15.1h-1Z"></path>
</svg>
