<svg class="hidden" preserveAspectRatio="xMidYMin" xmlns="http://www.w3.org/2000/svg" viewBox="0 0 29 32" id="people">
    <path class="a" d="M21.298,16.52H18.799v-.8184a4.9556,4.9556,0,0,0,2.3187-4.1806,4.9828,4.9828,0,0,0-8.9742-3,5.0057,5.0057,0,0,0-4.9988,5,4.933,4.933,0,0,0,2.1262,4.0465,5.0986,5.0986,0,0,0,.5261.327V18.52h-2.5a2.5035,2.5035,0,0,0-2.5005,2.501v2.5009H19.799v-2h4V19.0208A2.504,2.504,0,0,0,21.298,16.52Zm-2.501,5.0019V22.52H5.798v-1.499a1.5007,1.5007,0,0,1,1.5-1.4991h3.5V17.5208h-.004V17.27a4.0213,4.0213,0,0,1-.7711-.3888,3.9907,3.9907,0,1,1,4.7751-.3848,4.0368,4.0368,0,0,1-1.0066.66V18.22l.0056-.0024v1.3044h3.501a1.52,1.52,0,0,1,1.499,1.4991Zm4-1.0019H19.7483a2.5053,2.5053,0,0,0-2.45-2h-2.5v-.8022a4.9591,4.9591,0,0,0-1.4828-9.044,3.9936,3.9936,0,1,1,4.481,6.4656V16.21l.0008,0v1.3122h3.501a1.5,1.5,0,0,1,1.499,1.4991Z"/>
</svg>
