<svg  class="hidden" preserveAspectRatio="xMidYMin" xmlns="http://www.w3.org/2000/svg" viewBox="0 0 18 18" id="person-small">
    <path d="M11.733 12.004h-8V10.68a1.345 1.345 0 0 1 1.344-1.344H6.4V9.24a2.31 2.31 0 0 1-1.333-2.379 2.533 2.533 0 0 1 .8-1.861 2.752 2.752 0 0 1 2.021-.731 2.283 2.283 0 0 1 1.152.427 2.682 2.682 0 0 1 1.376 2.176 3.144 3.144 0 0 1-1.35 2.325v.139h1.537a1.131 1.131 0 0 1 1.13 1.13Zm-7.466-.534H11.2v-1.003a.596.596 0 0 0-.597-.597h-2.07v-.954l.118-.08a2.735 2.735 0 0 0 1.237-1.974A2.19 2.19 0 0 0 8.741 5.13a1.735 1.735 0 0 0-.88-.325 2.2 2.2 0 0 0-1.632.586A2.007 2.007 0 0 0 5.6 6.862c0 1.083.347 1.664 1.152 1.941l.181.064V9.87H5.077a.81.81 0 0 0-.81.81Z"/>
</svg>
