<svg id="picker" xmlns="http://www.w3.org/2000/svg" width="32" height="32"><path fill-rule="evenodd" d="M16.794 14.851a3.396 3.396 0 0 1 3.392-3.392 3.395 3.395 0 0 1 3.393 3.392 3.396 3.396 0 0 1-3.393 3.392 3.396 3.396 0 0 1-3.392-3.392m10.408 6.512-3.01-3.122a5.22 5.22 0 0 0 1.247-3.39A5.258 5.258 0 0 0 20.186 9.6a5.257 5.257 0 0 0-5.252 5.251 5.258 5.258 0 0 0 5.252 5.25c.932 0 1.807-.246 2.565-.673l3.093 3.208c.361.372.96.383 1.334.023a.915.915 0 0 0 .024-1.296" clip-rule="evenodd"/><path d="M3.2 17.067h8.533V16H3.2v1.067ZM3.2 12.8h9.6v-1.067H3.2V12.8ZM3.2 8.533h10.667V7.467H3.2v1.066ZM3.2 21.333h9.6v-1.066H3.2v1.066ZM3.2 25.6h8.533v-1.067H3.2V25.6Z"/></svg>