<svg id="print" xmlns="http://www.w3.org/2000/svg" width="32" height="32"><mask id="a" width="20" height="20" x="6" y="6" maskUnits="userSpaceOnUse" style="mask-type:luminance"><path fill-rule="evenodd" d="M6.4 6.933h19.2v18.134H6.4V6.933Z" clip-rule="evenodd"/></mask><g mask="url(#a)"><path fill-rule="evenodd" d="m21.654 24-11.414.107v-6.4c0-.214.107-.32.214-.32H21.44c.107 0 .214.106.214.32V24ZM10.24 8h11.414v1.813H10.24V8Zm12.587 16.107V22.08c.107 0 .213.107.32.107h1.173c.747 0 1.28-.64 1.28-1.387v-8.32c0-1.387-1.066-2.56-2.346-2.56h-.427V7.893c0-.533-.533-.96-1.067-.96H10.24c-.64 0-1.066.427-1.066.96V9.92h-.427c-1.28 0-2.347 1.173-2.347 2.56v8.213c0 .747.64 1.387 1.28 1.387h1.387v2.027c0 .533.533.96 1.067.96h11.413c.747 0 1.28-.427 1.28-.96Z" clip-rule="evenodd"/></g><mask id="b" width="20" height="20" x="6" y="6" maskUnits="userSpaceOnUse" style="mask-type:luminance"><path fill-rule="evenodd" d="M6.4 25.067h19.2V6.933H6.4v18.134Z" clip-rule="evenodd"/></mask><g fill-rule="evenodd" clip-rule="evenodd" mask="url(#b)"><path d="M11.84 20.053h8.32v-1.066h-8.32v1.066ZM11.84 22.827h8.32V21.76h-8.32v1.067Z"/></g></svg>