<svg  class="hidden" preserveAspectRatio="xMidYMin" xmlns="http://www.w3.org/2000/svg" viewBox="0 0 32 32" id="question-mark">
    <path d="M14.5 21a1 1 0 1 0 0-2 1 1 0 0 0 0 2ZM17.5 13c-.28 0-.5-.22-.5-.5a2.5 2.5 0 0 0-5 0c0 .28-.22.5-.5.5s-.5-.22-.5-.5c0-1.93 1.57-3.5 3.5-3.5s3.5 1.57 3.5 3.5c0 .28-.22.5-.5.5Z"></path>
    <path d="M14.5 17.85c-.28 0-.5-.23-.5-.5 0-2.11 1.12-2.85 1.95-3.4.69-.46 1.05-.74 1.05-1.45 0-.28.22-.5.5-.5s.5.22.5.5c0 1.28-.8 1.81-1.5 2.28-.81.53-1.5 1-1.5 2.57 0 .27-.22.5-.5.5Z"></path>
</svg>
