<svg width="100%" height="100%" class="hidden" preserveAspectRatio="xMidYMin" xmlns="http://www.w3.org/2000/svg" viewBox="0 0 32 32" id="ring-close-fill">
    <circle cx="15" cy="15" r="12.5" fill="white" stroke="#484848"/>
    <path d="M19.1898 20.13C19.0238 20.1271 18.8657 20.0588 18.7498 19.94L10.7498 11.94C10.5605 11.7884 10.4751 11.5416 10.5301 11.3054C10.5852 11.0692 10.7709 10.8856 11.0077 10.8332C11.2444 10.7809 11.4903 10.869 11.6398 11.06L19.6398 19.06C19.8786 19.3047 19.8786 19.6953 19.6398 19.94C19.519 20.0577 19.3583 20.1255 19.1898 20.13Z" fill="#484848"/>
    <path d="M11.1895 20.13C11.3581 20.1256 11.5188 20.0577 11.6395 19.94L19.6395 11.94C19.8367 11.6882 19.8139 11.3285 19.5864 11.1037C19.359 10.8788 18.9991 10.86 18.7495 11.06L10.7495 19.06C10.5739 19.2399 10.522 19.5071 10.6177 19.7397C10.7133 19.9723 10.9381 20.1257 11.1895 20.13Z" fill="#484848"/>
</svg>
