<svg width="32" height="32" class="hidden" preserveAspectRatio="xMidYMin" xmlns="http://www.w3.org/2000/svg" viewBox="0 0 32 32" id="rule">
    <path d="M14.5 8v7.1a2.5 2.5 0 0 0 0 4.9v2h1v-2.05a2.5 2.5 0 0 0 0-4.9V8h-1Zm-3.998 14v-6.05a2.5 2.5 0 0 0 0-4.9V9h-1v2.1a2.5 2.5 0 0 0 0 4.9v6h1Zm-2-8.5a1.5 1.5 0 1 1 3 0 1.5 1.5 0 0 1-3 0ZM19.998 12a1.5 1.5 0 1 0 0 3 1.5 1.5 0 0 0 0-3Zm-.5 10h1v-6.05a2.5 2.5 0 0 0 0-4.9V9h-1v2.1a2.5 2.5 0 0 0 0 4.9v6ZM15 19a1.5 1.5 0 1 0 0-3 1.5 1.5 0 0 0 0 3Z"></path>
</svg>
