<svg id="seats" xmlns="http://www.w3.org/2000/svg" width="32" height="32"><path fill-rule="evenodd" d="M9.602 8.001c-.882 0-1.6.717-1.6 1.599s.718 1.6 1.599 1.6c.882 0 1.601-.717 1.601-1.599s-.718-1.6-1.6-1.6m0 4.267A2.67 2.67 0 0 1 6.935 9.6a2.67 2.67 0 0 1 2.666-2.667 2.67 2.67 0 0 1 2.667 2.668A2.67 2.67 0 0 1 9.6 12.268M16.002 8.002c-.882 0-1.6.717-1.6 1.6a1.6 1.6 0 0 0 1.6 1.599c.427 0 .83-.166 1.132-.468a1.602 1.602 0 0 0-1.132-2.73m0 4.266a2.67 2.67 0 0 1-2.666-2.667 2.67 2.67 0 0 1 2.667-2.668 2.671 2.671 0 0 1 2.666 2.668 2.65 2.65 0 0 1-.78 1.886 2.65 2.65 0 0 1-1.886.78M9.601 14.401a1.601 1.601 0 0 0-.001 3.2c.882 0 1.601-.718 1.601-1.6 0-.882-.718-1.6-1.6-1.6m0 4.267A2.671 2.671 0 0 1 6.934 16 2.67 2.67 0 0 1 9.6 13.333a2.67 2.67 0 0 1 2.667 2.668A2.67 2.67 0 0 1 9.6 18.668M18.135 16.002A2.134 2.134 0 1 1 13.866 16a2.134 2.134 0 0 1 4.269.002" clip-rule="evenodd"/><path fill-rule="evenodd" d="M16.001 14.402a1.601 1.601 0 0 0 0 3.2c.881 0 1.6-.718 1.6-1.6 0-.882-.717-1.6-1.6-1.6m0 4.267A2.671 2.671 0 0 1 13.335 16a2.67 2.67 0 0 1 2.667-2.667 2.67 2.67 0 0 1 2.666 2.668 2.67 2.67 0 0 1-2.667 2.667" clip-rule="evenodd"/><mask id="a" width="7" height="7" x="19" y="6" maskUnits="userSpaceOnUse" style="mask-type:luminance"><path fill-rule="evenodd" d="M19.735 6.935h5.334v5.335h-5.334V6.935Z" clip-rule="evenodd"/></mask><g mask="url(#a)"><path fill-rule="evenodd" d="M22.402 8.003c-.882 0-1.6.717-1.6 1.6a1.6 1.6 0 0 0 1.599 1.599c.427 0 .83-.166 1.133-.468a1.602 1.602 0 0 0-1.132-2.73m0 4.266h-.001a2.67 2.67 0 0 1-2.666-2.667 2.67 2.67 0 0 1 2.667-2.668 2.671 2.671 0 0 1 2.667 2.668c0 .713-.278 1.383-.781 1.887a2.657 2.657 0 0 1-1.886.78" clip-rule="evenodd"/></g><path fill-rule="evenodd" d="M24.534 16.003a2.134 2.134 0 1 1-4.268-.002 2.134 2.134 0 0 1 4.268.002" clip-rule="evenodd"/><path fill-rule="evenodd" d="M22.4 14.403a1.601 1.601 0 0 0 0 3.2c.882 0 1.6-.718 1.6-1.6 0-.882-.717-1.6-1.6-1.6m0 4.267a2.671 2.671 0 0 1-2.666-2.668 2.669 2.669 0 0 1 2.667-2.667 2.671 2.671 0 0 1 2.667 2.668A2.67 2.67 0 0 1 22.4 18.67M11.733 22.401a2.133 2.133 0 1 1-4.267 0 2.133 2.133 0 0 1 4.268 0" clip-rule="evenodd"/><mask id="b" width="7" height="7" x="6" y="19" maskUnits="userSpaceOnUse" style="mask-type:luminance"><path fill-rule="evenodd" d="M6.934 19.734h5.333v5.334H6.934v-5.334Z" clip-rule="evenodd"/></mask><g mask="url(#b)"><path fill-rule="evenodd" d="M9.599 20.8A1.595 1.595 0 0 0 8 22.4c0 .882.717 1.6 1.599 1.6s1.6-.717 1.601-1.6c0-.881-.718-1.6-1.6-1.6h-.001Zm0 4.268a2.668 2.668 0 0 1-1.885-4.554 2.65 2.65 0 0 1 1.884-.78H9.6a2.669 2.669 0 0 1 2.667 2.667 2.671 2.671 0 0 1-2.668 2.667Z" clip-rule="evenodd"/></g><path fill-rule="evenodd" d="M18.134 22.402a2.133 2.133 0 1 1-4.267 0 2.133 2.133 0 0 1 4.267 0" clip-rule="evenodd"/><path fill-rule="evenodd" d="M16 20.802a1.595 1.595 0 0 0-1.6 1.599c0 .882.717 1.6 1.6 1.601.881 0 1.6-.718 1.6-1.6 0-.882-.718-1.6-1.6-1.6Zm0 4.267a2.668 2.668 0 0 1-1.885-4.554 2.65 2.65 0 0 1 1.883-.78h.003a2.669 2.669 0 0 1 2.666 2.667A2.671 2.671 0 0 1 16 25.069ZM24.533 22.403a2.133 2.133 0 1 1-4.267 0 2.133 2.133 0 0 1 4.267 0" clip-rule="evenodd"/><path fill-rule="evenodd" d="M22.399 20.803a1.595 1.595 0 0 0-1.6 1.599c0 .882.718 1.6 1.6 1.601.882 0 1.6-.718 1.6-1.6 0-.882-.717-1.6-1.6-1.6Zm0 4.267a2.668 2.668 0 0 1-1.885-4.554 2.65 2.65 0 0 1 1.884-.78h.002a2.669 2.669 0 0 1 2.667 2.667 2.671 2.671 0 0 1-2.668 2.667Z" clip-rule="evenodd"/></svg>