<svg  class="hidden" preserveAspectRatio="xMidYMin" xmlns="http://www.w3.org/2000/svg" viewBox="0 0 32 32" id="settings">
    <path d="M22.33 15.72v-1.26a1 1 0 0 0-.81-1l-1.18-.17c-.09-.278-.2-.549-.33-.81l.71-.95a1 1 0 0 0-.09-1.31l-.89-.89a1 1 0 0 0-1.31-.1l-1 .72a5.154 5.154 0 0 0-.8-.33l-.17-1.18a1 1 0 0 0-1-.86H14.2a1 1 0 0 0-1 .86l-.17 1.18a5.162 5.162 0 0 0-.8.33l-1-.72a1 1 0 0 0-1.31.1l-.89.89a1 1 0 0 0-.09 1.31l.71.95c-.13.261-.241.532-.33.81l-1.18.17a1 1 0 0 0-.86 1v1.26a1 1 0 0 0 .86 1l1.18.17c.089.275.2.542.33.8l-.71 1a1 1 0 0 0 .09 1.3l.89.9a1 1 0 0 0 1.31.09l1-.72c.255.14.522.253.8.34l.17 1.18a1 1 0 0 0 1 .86h1.21a1 1 0 0 0 1-.86l.17-1.18c.277-.087.545-.2.8-.34l1 .72a1 1 0 0 0 1.31-.09l.89-.9a1 1 0 0 0 .09-1.3l-.71-1c.13-.258.24-.525.33-.8l1.18-.17a1 1 0 0 0 .86-1Zm-6.75 3.92-.25 1.75h-.92l-.25-1.75-.71-.23a4.775 4.775 0 0 1-.63-.27l-.67-.33-1.41 1.06-.65-.65 1.06-1.42-.34-.66a4.919 4.919 0 0 1-.26-.63l-.23-.71-1.75-.25v-.92l1.75-.25.23-.71c.07-.217.156-.427.26-.63l.34-.67-1.06-1.41.65-.65 1.41 1.06.67-.34c.201-.106.412-.193.63-.26l.71-.23.25-1.75h.92l.25 1.75.71.23c.218.065.43.152.63.26l.67.34L19 10.31l.65.65-1.06 1.41.34.67c.104.203.19.413.26.63l.23.71 1.75.25v.92l-1.75.25-.23.71a4.89 4.89 0 0 1-.26.63l-.34.66 1.06 1.42-.65.65-1.41-1.06-.67.33a4.275 4.275 0 0 1-.63.27l-.71.23Z"></path>
    <path d="M12.33 15.09a2.5 2.5 0 1 1 5 0 2.5 2.5 0 0 1-5 0Zm3.75 0a1.25 1.25 0 1 0-2.5 0 1.25 1.25 0 0 0 2.5 0Z"></path>
</svg>
