<svg class="hidden" preserveAspectRatio="xMidYMin" xmlns="http://www.w3.org/2000/svg" viewBox="0 0 32 32" id="switch">
    <path d="M16.497 14c-.28 0-.5.22-.5.5V17h-6.29l2.15-2.15c.2-.2.2-.51 0-.71-.2-.2-.51-.2-.71 0l-3 3c-.05.05-.09.11-.11.17a.5.5 0 0 0 0 .38c.02.06.06.12.11.16l3 3c.09.1.22.15.35.15.13 0 .26-.05.35-.15.2-.2.2-.51 0-.71L9.707 18h6.79c.28 0 .5-.22.5-.5v-3c0-.28-.22-.5-.5-.5Z"></path>
    <path d="M22.958 11.69a.5.5 0 0 0 0-.38.457.457 0 0 0-.11-.16l-3-3c-.2-.2-.51-.2-.71 0-.2.2-.2.51 0 .71l2.15 2.14h-6.79c-.28 0-.5.22-.5.5v3c0 .28.22.5.5.5s.5-.22.5-.5V12h6.29l-2.15 2.15c-.2.2-.2.51 0 .71.1.09.23.14.36.14.13 0 .26-.05.35-.15l3-3c.05-.04.09-.1.11-.16Z"></path>
</svg>
