<svg id="switch" xmlns="http://www.w3.org/2000/svg" width="32" height="32"><path d="M17.597 14.933a.528.528 0 0 0-.533.534v2.666h-6.71l2.294-2.293a.528.528 0 0 0 0-.757.528.528 0 0 0-.758 0l-3.2 3.2a.481.481 0 0 0-.117.181.533.533 0 0 0 0 .405.38.38 0 0 0 .118.171l3.2 3.2a.5.5 0 0 0 .373.16.5.5 0 0 0 .373-.16.528.528 0 0 0 0-.757L10.354 19.2h7.243a.528.528 0 0 0 .534-.533v-3.2a.528.528 0 0 0-.534-.534Z"/><path d="M24.488 12.47a.534.534 0 0 0 0-.406.488.488 0 0 0-.117-.17l-3.2-3.2a.528.528 0 0 0-.758 0 .528.528 0 0 0 0 .757l2.294 2.282h-7.243a.528.528 0 0 0-.533.534v3.2c0 .298.234.533.533.533a.528.528 0 0 0 .533-.533V12.8h6.71l-2.294 2.293a.528.528 0 0 0 0 .758c.107.096.246.149.384.149a.5.5 0 0 0 .374-.16l3.2-3.2a.38.38 0 0 0 .117-.17Z"/></svg>