<svg id="waiting-decline" xmlns="http://www.w3.org/2000/svg" width="32" height="32"><g fill-rule="evenodd" clip-path="url(#a)" clip-rule="evenodd"><path d="m10.896 16 3.904-2.848V9.6h1.067V8.533H4.134V9.6H5.2v3.552L9.094 16 5.2 18.848V22.4H4.134v1.067h11.733V22.4H14.8v-3.552L10.896 16Zm-4.628-3.392L10 15.338l3.733-2.73V9.6H6.268v3.008Zm7.466 9.792v-3.008l-3.733-2.73-3.733 2.73V22.4h7.466Zm-6.4-10.336v-.33h5.333v.33l-2.666 1.952-2.667-1.952Zm5.333 8.203H7.334v1.066h5.333v-1.066ZM17.293 11.293a1 1 0 0 1 1.414 0l3.793 3.793 3.793-3.793a1 1 0 0 1 1.414 1.414L23.914 16.5l3.793 3.793a1 1 0 0 1-1.414 1.414L22.5 17.914l-3.793 3.793a1 1 0 0 1-1.414-1.414l3.793-3.793-3.793-3.793a1 1 0 0 1 0-1.414Z"/></g><defs><clipPath id="a"><path d="M0 0h32v32H0z"/></clipPath></defs></svg>