<svg id="zoom-out" xmlns="http://www.w3.org/2000/svg" width="32" height="32"><g clip-path="url(#a)"><path fill-rule="evenodd" d="M15.5 23a8.5 8.5 0 1 0 0-17 8.5 8.5 0 0 0 0 17Zm0 2C21.299 25 26 20.299 26 14.5S21.299 4 15.5 4 5 8.701 5 14.5 9.701 25 15.5 25Z" clip-rule="evenodd"/><path fill-rule="evenodd" d="M21.293 21.293a1 1 0 0 1 1.414 0l5 5a1 1 0 0 1-1.414 1.414l-5-5a1 1 0 0 1 0-1.414Z" clip-rule="evenodd"/><path d="M9 14h12v1H9z"/></g><defs><clipPath id="a"><path d="M0 0h32v32H0z"/></clipPath></defs></svg>