<svg width="100%" height="100%" class="hidden" preserveAspectRatio="xMidYMin" xmlns="http://www.w3.org/2000/svg" viewBox="0 0 32 32" id="zoom-out">
    <path d="M13.97 21.93c-4.4 0-7.97-3.57-7.97-7.97S9.57 6 13.97 6c4.39 0 7.96 3.57 7.96 7.96 0 4.39-3.57 7.97-7.96 7.97Zm0-14.93C10.12 7 7 10.12 7 13.96s3.12 6.96 6.97 6.96c3.85 0 6.96-3.12 6.96-6.96S17.81 7 13.97 7Z"></path>
    <path d="M23.42 23.96a.47.47 0 0 1-.35-.15l-4.14-4.14c-.2-.2-.2-.51 0-.71.2-.2.51-.2.71 0l4.14 4.14c.2.2.2.51 0 .71a.5.5 0 0 1-.36.15ZM17.92 14.46h-7.9c-.28 0-.5-.22-.5-.5s.22-.5.5-.5h7.9c.28 0 .5.22.5.5s-.23.5-.5.5Z"></path>
</svg>
