<svg id="magic-wand" xmlns="http://www.w3.org/2000/svg" width="32" height="32"><mask id="a" width="10" height="10" x="6" y="16" maskUnits="userSpaceOnUse" style="mask-type:luminance"><path fill-rule="evenodd" d="M6.4 16.464h9.26v9.127H6.4v-9.127Z" clip-rule="evenodd"/></mask><g mask="url(#a)"><path fill-rule="evenodd" d="m14.264 16.686-7.643 7.717a.722.722 0 0 0 0 1.04c.147.148.294.148.588.148s.44 0 .588-.149l7.643-7.717a.722.722 0 0 0 0-1.039c-.294-.296-.882-.296-1.176 0" clip-rule="evenodd"/></g><path fill-rule="evenodd" d="M19.703 13.125c.147 0 .441 0 .588-.149l2.94-2.968a.722.722 0 0 0 0-1.039.706.706 0 0 0-1.03 0l-2.939 2.968c-.294.149-.294.594-.147.89.147.15.441.298.588.298M20.29 16.686a.706.706 0 0 0-1.028 0 .722.722 0 0 0 0 1.04l2.94 2.967c.146.149.293.149.587.149s.441 0 .588-.149a.722.722 0 0 0 0-1.039l-3.087-2.968ZM12.5 8.82a.706.706 0 0 0-1.028 0 .722.722 0 0 0 0 1.04l2.94 2.968c.146.148.293.148.587.148s.441 0 .588-.148a.722.722 0 0 0 0-1.039L12.5 8.821ZM17.351 17.577c-.44 0-.735.296-.735.742v4.007c0 .445.294.742.735.742s.735-.297.735-.742v-4.007c0-.445-.44-.742-.735-.742" clip-rule="evenodd"/><mask id="b" width="3" height="6" x="16" y="6" maskUnits="userSpaceOnUse" style="mask-type:luminance"><path fill-rule="evenodd" d="M16.616 6.446h1.47v5.491h-1.47v-5.49Z" clip-rule="evenodd"/></mask><g mask="url(#b)"><path fill-rule="evenodd" d="M17.351 6.446c-.44 0-.735.297-.735.742v4.007c0 .445.294.742.735.742s.735-.296.735-.742V7.188c0-.445-.44-.742-.735-.742" clip-rule="evenodd"/></g><path fill-rule="evenodd" d="M9.854 15.5h3.969c.44 0 .735-.298.735-.743s-.441-.742-.735-.742H9.854c-.44 0-.735.297-.735.742s.294.742.735.742" clip-rule="evenodd"/><mask id="c" width="6" height="2" x="20" y="14" maskUnits="userSpaceOnUse" style="mask-type:luminance"><path fill-rule="evenodd" d="M20.144 14.015h5.438v1.484h-5.438v-1.484Z" clip-rule="evenodd"/></mask><g mask="url(#c)"><path fill-rule="evenodd" d="M24.847 14.015h-3.969c-.44 0-.734.297-.734.742s.294.742.735.742h3.968c.441 0 .735-.297.735-.742s-.441-.742-.735-.742" clip-rule="evenodd"/></g></svg>