<svg class="hidden" preserveAspectRatio="xMidYMin" xmlns="http://www.w3.org/2000/svg" viewBox="0 0 32 32" id="archive">
    <path d="M23.84 11.09a.5.5 0 0 0-.5.5v9.66a1.5 1.5 0 0 1-1.5 1.5H9.17a1.5 1.5 0 0 1-1.5-1.5v-9.66a.5.5 0 0 0-1 0v9.66a2.5 2.5 0 0 0 2.5 2.5h12.67a2.51 2.51 0 0 0 2.5-2.5v-9.66a.5.5 0 0 0-.5-.5Z"></path>
    <path d="M7.5 6h16A2.5 2.5 0 0 1 26 8.5v1.84H5V8.5A2.5 2.5 0 0 1 7.5 6ZM6 9.34h19V8.5A1.5 1.5 0 0 0 23.5 7h-16A1.51 1.51 0 0 0 6 8.5v.84ZM19 16.17a1.33 1.33 0 0 1-1.33 1.33h-4.33A1.33 1.33 0 0 1 12 16.17v-.33c0-.74.6-1.34 1.34-1.34h4.33A1.34 1.34 0 0 1 19 15.84v.33Zm-6-.33v.33a.34.34 0 0 0 .34.33h4.33a.33.33 0 0 0 .33-.33v-.33a.34.34 0 0 0-.33-.34h-4.33a.34.34 0 0 0-.34.34Z"></path>
</svg>
