<svg  class="hidden" preserveAspectRatio="xMidYMin" xmlns="http://www.w3.org/2000/svg" viewBox="0 0 32 32" id="eye-blind">
    <path d="M12.32,13.76a2.4916,2.4916,0,0,0,.0647.5485l2.9744-2.9871A2.49,2.49,0,0,0,12.32,13.76Z"/>
    <path class="a" d="M14.82,16.26a2.4781,2.4781,0,0,0,2.4234-3.09l-3.0089,3.0137A2.4855,2.4855,0,0,0,14.82,16.26Z"/>
    <path class="a" d="M6.0825,14.6994a9.1033,9.1033,0,0,1,3.8709-3.2173,5.4352,5.4352,0,0,0,.2372,5.03l.7323-.7355a4.4146,4.4146,0,0,1,.413-4.6947,11.9973,11.9973,0,0,1,3.438-.5215,11.38,11.38,0,0,1,1.2782.065l.9419-.9459A13.9222,13.9222,0,0,0,14.77,9.5c-7,0-9.6045,4.7627-9.7119,4.9658l-.124.2344.1245.2344a9.5812,9.5812,0,0,0,3.3942,3.3223l.7361-.7393A9.0315,9.0315,0,0,1,6.0825,14.6994Z"/>
    <path d="M24.4814,14.466a9.8656,9.8656,0,0,0-4.594-3.9443l-1.17,1.1715a4.3906,4.3906,0,0,1-5.9414,5.951l-.7332.7343a5.6978,5.6978,0,0,0,.7094.3663c-.3131-.0491-.59-.128-.8782-.1972l-.8323.8336A13.1356,13.1356,0,0,0,14.77,19.9c6.99,0,9.604-4.7622,9.7114-4.9648l.125-.2344Zm-7.4855,4.2391a5.3447,5.3447,0,0,0,1.5373-.991,5.41,5.41,0,0,0,1.2131-6.1619,9.0587,9.0587,0,0,1,3.7117,3.1472A9.571,9.571,0,0,1,16.9959,18.7051Z"/>
</svg>
