<svg width="100%" height="100%" class="hidden" preserveAspectRatio="xMidYMin" xmlns="http://www.w3.org/2000/svg" viewBox="0 0 32 32" id="magic-wand">
    <path d="m13.372 15.643-7.165 7.235a.677.677 0 0 0 0 .974c.138.14.275.14.55.14.276 0 .414 0 .552-.14l7.166-7.235a.677.677 0 0 0 0-.974c-.276-.278-.827-.278-1.103 0Z"></path>
    <path d="M18.47 12.304c.139 0 .414 0 .552-.139l2.756-2.782a.677.677 0 0 0 0-.974.662.662 0 0 0-.965 0l-2.756 2.782c-.275.14-.275.557-.137.835.137.14.413.278.55.278ZM19.022 15.643a.662.662 0 0 0-.965 0 .677.677 0 0 0 0 .974l2.756 2.783c.138.14.276.14.552.14.275 0 .413 0 .55-.14a.677.677 0 0 0 0-.974l-2.893-2.783ZM11.719 8.27a.662.662 0 0 0-.965 0 .677.677 0 0 0 0 .973l2.756 2.783c.138.14.276.14.551.14.276 0 .414 0 .551-.14a.677.677 0 0 0 0-.974L11.72 8.27ZM16.266 16.478c-.413 0-.689.278-.689.696v3.756c0 .418.276.696.69.696.413 0 .688-.278.688-.696v-3.756c0-.418-.413-.696-.689-.696Z"></path>
    <path d="M16.266 6.043c-.413 0-.689.279-.689.696v3.757c0 .417.276.695.69.695.413 0 .688-.278.688-.695V6.739c0-.417-.413-.696-.689-.696Z"></path>
    <path d="M9.238 14.53h3.72c.414 0 .69-.278.69-.695 0-.418-.413-.696-.69-.696h-3.72c-.413 0-.689.278-.689.696 0 .417.276.695.69.695Z"></path>
    <path d="M23.294 13.14h-3.72c-.414 0-.69.277-.69.695 0 .417.276.695.69.695h3.72c.413 0 .689-.278.689-.695 0-.418-.414-.696-.69-.696Z"></path>
</svg>
