<svg width="100%" height="100%" class="hidden" preserveAspectRatio="xMidYMin" xmlns="http://www.w3.org/2000/svg" viewBox="0 0 32 32" id="person">
    <path d="M22 22.506H7v-2.48c0-1.39 1.13-2.52 2.52-2.52H12v-.18c-2.23-.94-2.5-2.98-2.5-4.46 0-1.34.53-2.57 1.5-3.49 1-.94 2.37-1.44 3.79-1.37.73.05 1.48.32 2.16.8 1.72 1.19 2.58 2.56 2.58 4.08 0 1.83-1.32 3.45-2.53 4.36v.26h2.88c1.17 0 2.12.95 2.12 2.12v2.88Zm-14-1h13v-1.88c0-.62-.5-1.12-1.12-1.12H16v-1.79l.22-.15c.86-.59 2.31-2.03 2.32-3.7 0-1.17-.72-2.26-2.15-3.25-.54-.37-1.1-.58-1.65-.61-1.15-.06-2.26.34-3.06 1.1-.76.72-1.18 1.7-1.18 2.76 0 2.03.65 3.12 2.16 3.64l.34.12v1.88H9.52c-.84 0-1.52.68-1.52 1.52v1.48Z"></path>
</svg>
