<svg width="100%" height="100%" fill="none" xmlns="http://www.w3.org/2000/svg" id="place-ring-fill">
    <path d="M16 29.333c7.364 0 13.333-5.97 13.333-13.333 0-7.364-5.97-13.333-13.333-13.333C8.636 2.667 2.667 8.637 2.667 16c0 7.364 5.97 13.333 13.333 13.333Z" fill="#fff" stroke="#1076DB"/>
    <path d="M23.467 21.867c-.295 0-.534-.22-.534-.49V10.623c0-.27.24-.489.534-.489.294 0 .533.22.533.49v10.755c0 .27-.239.489-.533.489ZM20.11 15.623l-5.332-5.333a.534.534 0 0 0-.755.754l4.423 4.423H8.533a.533.533 0 1 0 0 1.067h9.913l-4.423 4.422a.534.534 0 0 0 .755.754l5.333-5.333a.534.534 0 0 0 0-.754Z" fill="#1076DB"/>
</svg>
