<svg class="hidden" preserveAspectRatio="xMidYMin" xmlns="http://www.w3.org/2000/svg" viewBox="0 0 32 32" id="rosette">
    <path d="M15.9806,20.11a5.1715,5.1715,0,1,1,5.1723-5.1714A5.1713,5.1713,0,0,1,15.9806,20.11Zm8.2-5.122a.6591.6591,0,0,0,.4649-.2666.5724.5724,0,0,0,.098-.4622l-.5335-2.41a.5734.5734,0,0,0-.2861-.3774.6517.6517,0,0,0-.5331-.0449l-2.0045.6878a6.2088,6.2088,0,0,0-.47-.7523l1.5125-1.4893a.66.66,0,0,0,.1975-.4995.5718.5718,0,0,0-.2116-.4222l-1.9166-1.552a.5671.5671,0,0,0-.4576-.1184.6581.6581,0,0,0-.4463.2972L18.454,9.3631a6.1171,6.1171,0,0,0-.8881-.3121l.2385-2.1062a.66.66,0,0,0-.1593-.5116.5711.5711,0,0,0-.43-.1955h-2.467a.5713.5713,0,0,0-.4306.1957.657.657,0,0,0-.1593.5116l.2385,2.1062a5.9989,5.9989,0,0,0-.8826.3093l-1.14-1.7818a.6558.6558,0,0,0-.4473-.2982.5681.5681,0,0,0-.4567.1184L9.553,8.9517a.5729.5729,0,0,0-.2115.4222.6563.6563,0,0,0,.1976.4995l1.5088,1.4855a6.4,6.4,0,0,0-.4725.754L8.5772,11.427a.6536.6536,0,0,0-.5339.0449.5748.5748,0,0,0-.2852.3774l-.534,2.41a.5682.5682,0,0,0,.0988.4621.6608.6608,0,0,0,.4651.2666l2.1033.2228a6.105,6.105,0,0,0,.0746.72l-2.013.6533a.6536.6536,0,0,0-.4.3593.5683.5683,0,0,0,0,.4706l1.0219,2.2469a.5816.5816,0,0,0,.3587.3113.64.64,0,0,0,.1873.028.6594.6594,0,0,0,.3421-.096l1.8116-1.0838a6.21,6.21,0,0,0,.67.6849L8.9961,24.6649l3.3462-.8369.8694,2.61,2.6626-4.6634,2.6612,4.6634.8714-2.61,3.3462.8369-2.876-5.0333a6.144,6.144,0,0,0,.8127-.8137l1.8154,1.0849A.6569.6569,0,0,0,22.8481,20a.64.64,0,0,0,.1874-.028.582.582,0,0,0,.3593-.3113l1.0219-2.2469a.5683.5683,0,0,0,0-.4706.6551.6551,0,0,0-.4008-.3593l-2.0176-.6551a6.2577,6.2577,0,0,0,.0736-.7176Z"/>
</svg>
