<svg  class="hidden" preserveAspectRatio="xMidYMin" xmlns="http://www.w3.org/2000/svg" viewBox="0 0 32 32" id="seats">
    <path d="M9.002 7.5c-.827 0-1.5.673-1.5 1.5S8.175 10.5 9 10.5c.827 0 1.501-.672 1.501-1.5 0-.826-.673-1.5-1.5-1.5Zm-.001 4A2.503 2.503 0 0 1 6.502 9c0-1.378 1.121-2.5 2.5-2.5s2.5 1.122 2.5 2.5c0 1.379-1.122 2.5-2.501 2.5ZM15.002 7.502c-.827 0-1.5.672-1.5 1.5a1.5 1.5 0 0 0 1.499 1.499h.001c.4 0 .777-.156 1.061-.44a1.502 1.502 0 0 0-1.061-2.56Zm0 4h-.001a2.503 2.503 0 0 1-2.499-2.5 2.503 2.503 0 0 1 2.5-2.501 2.504 2.504 0 0 1 2.5 2.5c0 .669-.26 1.297-.732 1.769s-1.1.732-1.768.732ZM9.001 13.5a1.501 1.501 0 0 0-.001 3c.827 0 1.501-.672 1.501-1.5 0-.826-.673-1.5-1.5-1.5ZM9 17.5A2.504 2.504 0 0 1 6.501 15c0-1.38 1.121-2.5 2.5-2.5s2.5 1.122 2.5 2.5c0 1.38-1.122 2.5-2.501 2.5ZM17.001 15.002A2 2 0 1 1 12.999 15a2 2 0 0 1 4.002.002Z"></path>
    <path d="M15.001 13.502a1.501 1.501 0 0 0-.001 3c.827 0 1.501-.673 1.501-1.5s-.673-1.5-1.5-1.5Zm-.001 4A2.504 2.504 0 0 1 12.501 15c0-1.378 1.121-2.5 2.5-2.5a2.504 2.504 0 0 1 2.5 2.5c0 1.38-1.122 2.5-2.501 2.5Z"></path>
    <path d="M21.002 7.503c-.827 0-1.5.672-1.5 1.5a1.5 1.5 0 0 0 1.499 1.499h.001c.4 0 .777-.156 1.061-.44a1.502 1.502 0 0 0-1.061-2.56Zm0 4h-.001a2.503 2.503 0 0 1-2.499-2.5 2.503 2.503 0 0 1 2.5-2.501 2.504 2.504 0 0 1 2.5 2.5c0 .669-.26 1.297-.732 1.77-.472.47-1.1.73-1.768.73Z"></path>
    <path d="M23.001 15.003A2 2 0 1 1 18.999 15a2 2 0 0 1 4.002.002Z"></path>
    <path d="M21.001 13.503a1.501 1.501 0 0 0-.001 3c.827 0 1.501-.673 1.501-1.5s-.673-1.5-1.5-1.5Zm-.001 4a2.504 2.504 0 0 1-2.499-2.501c0-1.38 1.121-2.5 2.5-2.5a2.504 2.504 0 0 1 2.5 2.5c0 1.38-1.122 2.5-2.501 2.5ZM11 21a2 2 0 1 1-4 0 2 2 0 0 1 4 0Z"></path>
    <path d="M8.999 19.5A1.495 1.495 0 0 0 7.5 21c0 .827.672 1.5 1.499 1.5.827 0 1.5-.672 1.501-1.5 0-.826-.673-1.5-1.5-1.5h-.001Zm0 4a2.502 2.502 0 0 1-1.767-4.268 2.484 2.484 0 0 1 1.766-.731H9c1.379 0 2.5 1.12 2.5 2.5a2.504 2.504 0 0 1-2.501 2.5Z"></path>
    <path d="M17 21.002a2 2 0 1 1-4 0 2 2 0 0 1 4 0Z"></path>
    <path d="M14.999 19.502A1.495 1.495 0 0 0 13.5 21c0 .827.672 1.5 1.499 1.5.827 0 1.5-.672 1.501-1.5 0-.826-.673-1.5-1.5-1.5h-.001Zm0 4a2.502 2.502 0 0 1-1.767-4.27 2.484 2.484 0 0 1 1.766-.73H15c1.379 0 2.5 1.12 2.5 2.5a2.504 2.504 0 0 1-2.501 2.5ZM23 21.003a2 2 0 1 1-4 0 2 2 0 0 1 4 0Z"></path>
    <path d="M20.999 19.503a1.495 1.495 0 0 0-1.499 1.499c0 .827.672 1.5 1.499 1.5.827 0 1.5-.672 1.501-1.5 0-.826-.673-1.5-1.5-1.5h-.001Zm0 4a2.502 2.502 0 0 1-1.767-4.27 2.484 2.484 0 0 1 1.766-.73H21c1.379 0 2.5 1.12 2.5 2.5a2.504 2.504 0 0 1-2.501 2.5Z"></path>
</svg>
