<svg  class="hidden" preserveAspectRatio="xMidYMin" xmlns="http://www.w3.org/2000/svg" viewBox="0 0 32 32" id="waiting-decline">
    <path class="a" d="M22.105,16.4011l2.7915-2.792a1.0718,1.0718,0,0,0-.09-1.4239,1.083,1.083,0,0,0-1.4677-.0361l-2.7447,2.7433-2.6128-2.609a1.067,1.067,0,0,0-1.8789.417,1.0474,1.0474,0,0,0,.3291,1.0346l2.66,2.6588L16.38,19.1047a1.0715,1.0715,0,0,0,.77,1.8193,1.0965,1.0965,0,0,0,.7481-.3144l2.7053-2.706,2.7009,2.6991a1.0607,1.0607,0,0,0,.749.3223h.0088l.0088-.001a1.0939,1.0939,0,0,0,.752-.32,1.0746,1.0746,0,0,0-.0049-1.4941Z"/>
    <path class="a" d="M4,9H5v3.33L8.65,15,5,17.67V21H4v1H15V21H14V17.67L10.34,15,14,12.33V9h1V8H4Zm9,9.18V21H6V18.18l3.5-2.56ZM6,9h7v2.82L9.5,14.38,6,11.82Z"/>
    <rect class="a" x="7" y="19" width="5" height="1"/>
    <polygon class="a" points="12 11.31 12 11 7 11 7 11.31 9.5 13.14 12 11.31"/>
</svg>
