<svg  class="hidden" preserveAspectRatio="xMidYMin" xmlns="http://www.w3.org/2000/svg" viewBox="0 0 32 32" id="zoom-in">
    <path d="m25.664 24.683-4.3-4.301a8.6 8.6 0 1 0-.746.769l4.289 4.289a.5.5 0 0 0 .373.16.541.541 0 0 0 .384-.16.528.528 0 0 0 0-.757Zm-10.773-2.368a7.424 7.424 0 1 1 7.424-7.424 7.43 7.43 0 0 1-7.424 7.424Z"/>
    <path d="M19.157 14.39h-3.722v-3.755a.544.544 0 0 0-1.088 0v3.754h-3.712a.544.544 0 1 0 0 1.088h3.712v3.67a.546.546 0 0 0 .544.544.537.537 0 0 0 .544-.534v-3.68h3.722a.553.553 0 0 0 .544-.544.546.546 0 0 0-.544-.544Z"/>
</svg>
