<svg id="brochure" xmlns="http://www.w3.org/2000/svg" width="32" height="32"><path fill-rule="evenodd" d="M11 8.5a.5.5 0 0 0-.5.5v13.5a.5.5 0 0 0 .5.5h7v-2a1.5 1.5 0 0 1 1.5-1.5h2V9a.5.5 0 0 0-.5-.5H11Zm9.793 12H19.5a.5.5 0 0 0-.5.5v1.293l1.793-1.793ZM9.5 9A1.5 1.5 0 0 1 11 7.5h10A1.5 1.5 0 0 1 22.5 9v11.207L18.707 24H11a1.5 1.5 0 0 1-1.5-1.5V9Z" clip-rule="evenodd"/><path fill-rule="evenodd" d="M12 12a.5.5 0 0 1 .5-.5h7a.5.5 0 0 1 0 1h-7a.5.5 0 0 1-.5-.5Zm0 2.5a.5.5 0 0 1 .5-.5h7a.5.5 0 0 1 0 1h-7a.5.5 0 0 1-.5-.5Zm0 2.5a.5.5 0 0 1 .5-.5h4a.5.5 0 0 1 0 1h-4a.5.5 0 0 1-.5-.5Z" clip-rule="evenodd"/></svg>