<svg id="chevron-ring" xmlns="http://www.w3.org/2000/svg" width="32" height="32"><g fill-rule="evenodd" clip-path="url(#a)" clip-rule="evenodd"><path d="M16 28c6.627 0 12-5.373 12-12S22.627 4 16 4 4 9.373 4 16s5.373 12 12 12Zm0 1c7.18 0 13-5.82 13-13S23.18 3 16 3 3 8.82 3 16s5.82 13 13 13Z"/><path d="M13.414 10.133a.61.61 0 0 0-.434 1.044L17.818 16l-4.838 4.822a.61.61 0 0 0 .434 1.045c.157 0 .315-.061.434-.18l5.102-5.085a.848.848 0 0 0 0-1.204l-5.102-5.085a.618.618 0 0 0-.434-.18Z"/></g><defs><clipPath id="a"><path d="M0 0h32v32H0z"/></clipPath></defs></svg>