<svg id="ring-close-fill" xmlns="http://www.w3.org/2000/svg" width="32" height="32" fill="none"><path fill="#fff" d="M29 16c0 7.18-5.82 13-13 13S3 23.18 3 16 8.82 3 16 3s13 5.82 13 13Z"/><path fill="#484848" fill-rule="evenodd" d="M16 28c6.627 0 12-5.373 12-12S22.627 4 16 4 4 9.373 4 16s5.373 12 12 12Zm0 1c7.18 0 13-5.82 13-13S23.18 3 16 3 3 8.82 3 16s5.82 13 13 13Z" clip-rule="evenodd"/><path fill="#484848" d="M20.255 20.932a.672.672 0 0 1-.47-.202l-8.533-8.534a.672.672 0 1 1 .95-.938l8.533 8.533a.672.672 0 0 1 0 .939.715.715 0 0 1-.48.202Z"/><path fill="#484848" d="M11.721 20.932a.714.714 0 0 0 .48-.202l8.533-8.534a.672.672 0 0 0-.949-.938l-8.533 8.533a.672.672 0 0 0 .469 1.141Z"/></svg>