<svg id="question-mark-small" xmlns="http://www.w3.org/2000/svg" width="16" height="16"><path d="M8.094 3c.616 0 1.139.103 1.568.308.439.205.77.48.994.826.224.345.336.723.336 1.134 0 .373-.065.695-.196.966-.13.261-.29.476-.476.644-.187.168-.43.355-.728.56-.383.252-.667.485-.854.7-.187.215-.28.5-.28.854v.476H6.792v-.546c0-.42.065-.775.196-1.064.14-.299.303-.532.49-.7.187-.177.43-.369.728-.574.317-.215.546-.401.686-.56a.862.862 0 0 0 .224-.616c0-.308-.107-.546-.322-.714-.205-.177-.49-.266-.854-.266-.663 0-1.255.308-1.778.924L5 4.442C5.812 3.481 6.843 3 8.094 3Zm-.448 7.826c.317 0 .588.112.812.336.224.215.336.48.336.798 0 .308-.112.574-.336.798a1.106 1.106 0 0 1-.812.336 1.09 1.09 0 0 1-.798-.336 1.114 1.114 0 0 1-.322-.798c0-.317.107-.583.322-.798a1.06 1.06 0 0 1 .798-.336Z"/></svg>