<svg id="eye-blind" xmlns="http://www.w3.org/2000/svg" width="32" height="32"><path d="M15.8 11.2c-2.1 0-3.8.4-5.1 1-.9 1.8-.7 4 .4 5.7l.7-.7c-1-1.6-1-3.8.3-5.4 1.2-.4 2.4-.6 3.7-.6 0 .1.1.1.1.1.6 0 1.2 0 1.8.1l.1-.1c-.7-.1-1.4-.1-2-.1ZM20.5 12l-.5.5c1 1.9.6 4.2-1 5.7-.9.9-2.1 1.3-3.2 1.3-.8 0-1.5-.2-2.2-.5l-.7.7c.3.2.6.3.9.4.6.1 1.2.1 1.9.1.8 0 1.5-.1 2.2-.2.7-.3 1.3-.6 1.8-1.2 1.8-1.7 2.3-4.4 1.3-6.6-.1 0-.3-.1-.5-.2Z"/><path d="M15.8 12c-1.5 0-2.7 1.2-2.7 2.7 0 .4.1.7.2 1l3.5-3.5c-.3-.1-.6-.2-1-.2ZM18.4 14.1l-3.2 3.2c.2 0 .4.1.6.1 1.5 0 2.7-1.2 2.7-2.7 0-.2 0-.4-.1-.6Z"/><path d="M15.8 10.2c-3.7 0-6.3 1.3-8 2.6-.8.6-1.4 1.3-1.8 1.8-.2.2-.3.5-.4.6l-.1.2v.1l.4.2-.4.2v.1l.1.2c.1.1.2.4.4.6.4.5 1 1.2 1.8 1.8.5.4 1 .7 1.6 1.1l.7-.7c-.7-.3-1.2-.7-1.7-1.1-.7-.6-1.3-1.2-1.6-1.6-.1-.2-.3-.4-.3-.5.1-.1.2-.3.3-.5.3-.4.9-1 1.6-1.6.6-.5 1.3-1 2.2-1.4 1.3-.6 3-1 5.1-1 .7 0 1.3 0 1.9.1l.9-.9c-.8-.2-1.7-.3-2.7-.3ZM26.1 15.4l-.4.2.4.2.1-.2-.1-.2Zm-4.9-4.1-.7.7c.2.1.4.2.6.2.8.4 1.5.8 2.1 1.3.7.6 1.3 1.2 1.6 1.6.1.2.3.4.3.5-.1.1-.2.3-.3.5-.3.4-.9 1-1.6 1.6-1.2.9-2.8 1.9-5.2 2.2-.7.1-1.4.2-2.2.2-.7 0-1.3 0-1.9-.1-.4-.1-.8-.1-1.2-.2l-.8.8c1.1.3 2.4.5 3.9.5 3.7 0 6.3-1.3 8-2.6.8-.7 1.4-1.3 1.8-1.8.2-.2.3-.5.4-.6v-.2l-.4-.2.4-.2v-.1l-.1-.2c-.1-.1-.2-.4-.4-.6-.4-.5-1-1.2-1.8-1.8-.6-.6-1.5-1.1-2.5-1.5Z"/><path d="m5.9 15.7-.4-.2-.1.2.1.2.4-.2Z"/></svg>