<svg id="numbering" xmlns="http://www.w3.org/2000/svg" width="32" height="32"><path d="M8.897 8v4.732H7.812V9.078l-1.015.623-.483-.735L7.91 8h.987ZM7.705 13.902c.34 0 .632.06.875.182.247.121.434.285.56.49.13.205.196.432.196.679 0 .252-.051.492-.154.721-.103.229-.285.492-.546.791-.261.294-.642.667-1.14 1.12h1.938l-.112.847h-3.08v-.784c.574-.565.992-.99 1.253-1.274.261-.29.443-.53.546-.721.107-.191.161-.387.161-.588 0-.191-.056-.34-.168-.448a.582.582 0 0 0-.441-.168.845.845 0 0 0-.448.119 1.61 1.61 0 0 0-.413.371l-.65-.518a2.15 2.15 0 0 1 .699-.602c.275-.145.583-.217.924-.217ZM7.701 19.902c.331 0 .614.054.847.161.238.107.418.252.539.434.126.182.189.385.189.609 0 .285-.082.523-.245.714-.159.191-.385.329-.679.413.317.033.576.147.777.343.2.191.301.464.301.819 0 .266-.07.511-.21.735-.14.22-.348.394-.623.525-.27.13-.595.196-.973.196-.69 0-1.232-.238-1.624-.714l.595-.581c.159.159.313.275.462.35.154.07.322.105.504.105.22 0 .397-.06.532-.182.135-.121.203-.29.203-.504 0-.243-.065-.415-.196-.518-.126-.107-.317-.161-.574-.161h-.392l.119-.763h.273c.21 0 .376-.054.497-.161.121-.107.182-.259.182-.455a.49.49 0 0 0-.168-.399c-.112-.098-.266-.147-.462-.147-.331 0-.64.138-.924.413l-.546-.595a2.24 2.24 0 0 1 1.596-.637Z"/><path fill-rule="evenodd" d="M12.347 10.232a.5.5 0 0 1 .5-.5h12.5a.5.5 0 0 1 0 1h-12.5a.5.5 0 0 1-.5-.5ZM12.347 16.732a.5.5 0 0 1 .5-.5h12.5a.5.5 0 0 1 0 1h-12.5a.5.5 0 0 1-.5-.5ZM12.347 22.732a.5.5 0 0 1 .5-.5h12.5a.5.5 0 0 1 0 1h-12.5a.5.5 0 0 1-.5-.5Z" clip-rule="evenodd"/></svg>