<svg id="double-chevron-right" xmlns="http://www.w3.org/2000/svg" width="32" height="32"><g fill-rule="evenodd" clip-path="url(#a)" clip-rule="evenodd"><path d="M10.414 10.133a.61.61 0 0 0-.434 1.044L14.818 16 9.98 20.822a.61.61 0 0 0 .434 1.045c.157 0 .315-.061.434-.18l5.102-5.085a.848.848 0 0 0 0-1.204l-5.102-5.085a.618.618 0 0 0-.434-.18"/><path d="M16.414 10.133a.61.61 0 0 0-.434 1.044L20.818 16l-4.838 4.822a.61.61 0 0 0 .434 1.045c.157 0 .315-.061.434-.18l5.102-5.085a.848.848 0 0 0 0-1.204l-5.102-5.085a.618.618 0 0 0-.434-.18"/></g><defs><clipPath id="a"><path d="M0 0h32v32H0z"/></clipPath></defs></svg>