<svg id="double-chevron-left" xmlns="http://www.w3.org/2000/svg" width="32" height="32"><g fill-rule="evenodd" clip-path="url(#a)" clip-rule="evenodd"><path d="M15.586 21.867a.61.61 0 0 0 .434-1.044L11.182 16l4.838-4.822a.61.61 0 0 0-.434-1.045.618.618 0 0 0-.434.18l-5.102 5.085a.848.848 0 0 0 0 1.204l5.102 5.085c.12.119.277.18.434.18"/><path d="M21.586 21.867a.61.61 0 0 0 .434-1.044L17.182 16l4.838-4.822a.61.61 0 0 0-.434-1.045.618.618 0 0 0-.434.18l-5.102 5.085a.848.848 0 0 0 0 1.204l5.102 5.085c.12.119.277.18.434.18"/></g><defs><clipPath id="a"><path d="M0 0h32v32H0z"/></clipPath></defs></svg>