<svg id="lock-open" xmlns="http://www.w3.org/2000/svg" width="32" height="32"><path fill-rule="evenodd" d="M12.267 12.279v-.06 3.344H20.8c.59 0 1.067.477 1.067 1.066v6.934a1.6 1.6 0 0 1-1.6 1.6h-8.533a1.6 1.6 0 0 1-1.6-1.6v-6.934c0-.589.477-1.066 1.066-1.066h1.067v-3.284Zm8 11.817a.533.533 0 0 0 .533-.533v-6.934h-9.6v6.934a.544.544 0 0 0 .534.533h8.533Z" clip-rule="evenodd"/><path d="M17.6 19.296a1.6 1.6 0 1 0-2.4 1.376v1.557a.8.8 0 1 0 1.6 0v-1.557a1.59 1.59 0 0 0 .8-1.376Z"/><path fill-rule="evenodd" d="M12.268 16.106V11.66C12.268 9.708 13.976 8 16 8c2.025 0 3.733 1.708 3.733 3.66v.073h-1.067v-.073c0-1.363-1.23-2.593-2.666-2.593s-2.667 1.23-2.667 2.593v4.446h-1.066Z" clip-rule="evenodd"/></svg>