<svg id="rosette" xmlns="http://www.w3.org/2000/svg" width="32" height="32"><path fill-rule="evenodd" d="M16.439 20.144a5.925 5.925 0 0 1-5.92-5.919 5.925 5.925 0 0 1 5.92-5.919 5.926 5.926 0 0 1 5.92 5.92 5.926 5.926 0 0 1-5.92 5.918Zm9.385-5.862a.754.754 0 0 0 .532-.305.655.655 0 0 0 .112-.53l-.61-2.758a.656.656 0 0 0-.327-.432.746.746 0 0 0-.61-.05l-2.295.786c-.158-.3-.339-.586-.537-.86l1.73-1.705a.755.755 0 0 0 .227-.572.655.655 0 0 0-.242-.483L21.61 5.596a.65.65 0 0 0-.524-.136.753.753 0 0 0-.51.34L19.27 7.845a6.993 6.993 0 0 0-1.017-.357l.273-2.41a.756.756 0 0 0-.182-.586.654.654 0 0 0-.493-.224h-2.824a.654.654 0 0 0-.492.224.752.752 0 0 0-.183.585l.273 2.411c-.349.094-.687.21-1.01.354l-1.304-2.04a.751.751 0 0 0-.512-.34.65.65 0 0 0-.523.135L9.082 7.373a.655.655 0 0 0-.242.483c-.011.211.071.42.226.572l1.727 1.7c-.199.274-.381.561-.541.863l-2.287-.785a.748.748 0 0 0-.611.051.657.657 0 0 0-.327.432l-.61 2.759a.65.65 0 0 0 .112.529c.123.17.318.281.533.305l2.407.255c.013.28.04.554.085.824l-2.304.748a.747.747 0 0 0-.457.41.65.65 0 0 0 0 .54l1.169 2.571c.077.17.227.299.41.356a.754.754 0 0 0 .606-.078l2.074-1.24c.234.283.493.54.767.784l-3.375 5.905 3.83-.958.996 2.987 3.047-5.338 3.046 5.338.998-2.987 3.83.958-3.293-5.76c.338-.28.65-.592.93-.931l2.078 1.241a.752.752 0 0 0 .607.08.666.666 0 0 0 .41-.357l1.17-2.572a.65.65 0 0 0 0-.538.75.75 0 0 0-.459-.411l-2.309-.75a7.17 7.17 0 0 0 .084-.821l2.415-.256Z" clip-rule="evenodd"/></svg>