<svg id="rule" xmlns="http://www.w3.org/2000/svg" width="32" height="32"><path fill-rule="evenodd" d="M15.467 8.533v7.574a2.666 2.666 0 0 0 0 5.226v2.134h1.067V21.28a2.666 2.666 0 0 0 0-5.227v-7.52h-1.067Zm-4.265 14.934v-6.454a2.666 2.666 0 0 0 0-5.226V9.6h-1.067v2.24a2.666 2.666 0 0 0 0 5.227v6.4h1.067ZM9.069 14.4a1.6 1.6 0 1 1 3.2 0 1.6 1.6 0 0 1-3.2 0Zm12.263-1.6a1.6 1.6 0 1 0 0 3.2 1.6 1.6 0 0 0 0-3.2Zm-.534 10.667h1.067v-6.454a2.666 2.666 0 0 0 0-5.226V9.6h-1.067v2.24a2.666 2.666 0 0 0 0 5.227v6.4ZM16 20.267a1.6 1.6 0 1 0 0-3.2 1.6 1.6 0 0 0 0 3.2Z" clip-rule="evenodd"/></svg>