<svg id="pdf" xmlns="http://www.w3.org/2000/svg" width="32" height="32"><path fill-rule="evenodd" d="M7.69 12.363c1.857 0 2.987.757 2.987 2.346 0 1.696-1.226 2.454-2.89 2.454h-.864v2.57H5.515v-7.37H7.69Zm-.01 3.744c.939 0 1.525-.32 1.525-1.398 0-.928-.565-1.312-1.525-1.312h-.757v2.71h.757Zm5.952-3.744c1.941 0 3.776.597 3.776 3.648 0 2.986-1.824 3.722-3.584 3.722h-2.006v-7.37h1.814Zm-.405 1.056v5.258h.693c1.099 0 2.005-.49 2.005-2.666 0-2.219-.96-2.592-2.048-2.592h-.65Zm9.525-.011h-2.613v2.208h2.272v1.045h-2.272v3.072H18.73v-7.37h4.17l-.149 1.045Z" clip-rule="evenodd"/><path fill-rule="evenodd" d="M7.5 6A1.5 1.5 0 0 1 9 4.5h15A1.5 1.5 0 0 1 25.5 6v16.207L20.707 27H9a1.5 1.5 0 0 1-1.5-1.5V21h1v4.5a.5.5 0 0 0 .5.5h11v-3a1.5 1.5 0 0 1 1.5-1.5h3V6a.5.5 0 0 0-.5-.5H9a.5.5 0 0 0-.5.5v5h-1V6Zm16.293 16.5H21.5a.5.5 0 0 0-.5.5v2.293l2.793-2.793Z" clip-rule="evenodd"/></svg>