<svg width="32" height="32" class="hidden" preserveAspectRatio="xMidYMin" xmlns="http://www.w3.org/2000/svg" viewBox="0 0 32 32" id="picker">
    <path d="M15.744 13.923a3.184 3.184 0 0 1 3.18-3.18 3.183 3.183 0 0 1 3.181 3.18 3.184 3.184 0 0 1-3.181 3.18 3.184 3.184 0 0 1-3.18-3.18Zm9.758 6.105L22.679 17.1a4.894 4.894 0 0 0 1.17-3.178A4.93 4.93 0 0 0 18.924 9 4.929 4.929 0 0 0 14 13.923a4.93 4.93 0 0 0 4.924 4.922 4.89 4.89 0 0 0 2.405-.631l2.9 3.007c.338.349.9.359 1.25.022a.858.858 0 0 0 .023-1.215Z"></path>
    <path d="M3 16h8v-1H3v1ZM3 12h9v-1H3v1ZM3 8h10V7H3v1ZM3 20h9v-1H3v1ZM3 24h8v-1H3v1Z"></path>
</svg>
