<svg class="hidden" preserveAspectRatio="xMidYMin" xmlns="http://www.w3.org/2000/svg" viewBox="0 0 18 18" id="achievement-small">
    <path d="M14.569 5.603a8.87 8.87 0 0 1-.904 2 6.079 6.079 0 0 1-.837-1.766c.24-.964.543-1.912.904-2.837.35.843.63 1.713.837 2.603ZM12.87 8.18c-.19.61-.473 1.19-.837 1.715a5.282 5.282 0 0 1-.837-1.673c.18-.673.463-1.313.837-1.9.384.567.667 1.195.837 1.858Z"/>
    <path d="M14.327 9.92a8.577 8.577 0 0 1-2.276-.368 7.271 7.271 0 0 1 1.673-1.422 8.636 8.636 0 0 1 2.277.36 7.473 7.473 0 0 1-1.674 1.43ZM13.28 11.787a7.689 7.689 0 0 1-2.067.836 7.705 7.705 0 0 1-1.958-1.07 7.688 7.688 0 0 1 2.067-.838c.7.264 1.359.624 1.958 1.072ZM10.217 7.97c.271.612.43 1.266.468 1.934-.142.452-1.59 1.673-1.59 1.673a5.54 5.54 0 0 1-.468-1.941c.15-.477 1.59-1.665 1.59-1.665Z"/>
    <path d="m9.657 11.059 2.594-1.306-1.958 1.79-3.599 2.034.327-.954 2.636-1.564ZM1.456 5.753c.2.66.481 1.292.837 1.883a5.749 5.749 0 0 0 .837-1.674 22.903 22.903 0 0 0-.837-2.72 16.904 16.904 0 0 0-.837 2.511ZM3.13 8.18c.19.61.473 1.19.837 1.715a5.28 5.28 0 0 0 .837-1.673 6.795 6.795 0 0 0-.837-1.9A5.933 5.933 0 0 0 3.13 8.18Z"/>
    <path d="M1.674 9.92a8.577 8.577 0 0 0 2.276-.368A7.272 7.272 0 0 0 2.276 8.13 8.636 8.636 0 0 0 0 8.49a7.473 7.473 0 0 0 1.674 1.43ZM4.787 12.623c.7-.26 1.36-.62 1.958-1.07a7.688 7.688 0 0 0-2.067-.838c-.7.264-1.359.624-1.958 1.072.644.377 1.34.66 2.067.836ZM5.782 7.97a5.54 5.54 0 0 0-.469 1.934c.143.452 1.59 1.673 1.59 1.673a5.54 5.54 0 0 0 .47-1.941c-.152-.477-1.59-1.665-1.59-1.665Z"/>
    <path d="M6.343 11.059 3.75 9.753l1.958 1.79 3.599 2.034-.318-.954-2.645-1.564Z"/>
</svg>
