<svg id="shopping-cart" xmlns="http://www.w3.org/2000/svg" width="32" height="32"><path d="M22.524 9.674a1 1 0 0 1 .868 1.117L22.216 20.2H9.784l-1.027-8.194a.387.387 0 0 0-.384-.34h-3.04a1 1 0 1 1 0-2h3.04a2.387 2.387 0 0 1 2.368 2.093l.808 6.441h8.901l.957-7.657a1 1 0 0 1 1.117-.869ZM11.733 25.6a2.133 2.133 0 1 0 0-4.267 2.133 2.133 0 0 0 0 4.267ZM20.267 25.6a2.133 2.133 0 1 0 0-4.267 2.133 2.133 0 0 0 0 4.267Z"/><path fill-rule="evenodd" d="M22.4 12.233H9.6v-1h12.8v1ZM21.334 15.967H10.667v-1h10.667v1Z" clip-rule="evenodd"/><path fill-rule="evenodd" d="M13.366 18.667v-6.934h1v6.934h-1ZM17.634 18.667v-6.934h1v6.934h-1Z" clip-rule="evenodd"/></svg>