<svg xmlns="http://www.w3.org/2000/svg" class="hidden" width="32" height="32" preserveAspectRatio="xMidYMin" viewBox="0 0 32 32" id="double-chevron-right">
	<path d="M10.576 10a.572.572 0 0 0-.407.979l4.536 4.521-4.536 4.521a.572.572 0 0 0 .407.979.579.579 0 0 0 .407-.168l4.783-4.768a.795.795 0 0 0 0-1.128l-4.783-4.768a.579.579 0 0 0-.407-.168Z"/>
	<path d="M16.576 10a.572.572 0 0 0-.407.979l4.536 4.521-4.536 4.521a.572.572 0 0 0 .407.979.579.579 0 0 0 .407-.168l4.783-4.768a.795.795 0 0 0 0-1.128l-4.783-4.768a.579.579 0 0 0-.407-.168Z"/>
</svg>