<svg width="32" height="32" class="hidden" preserveAspectRatio="xMidYMin" xmlns="http://www.w3.org/2000/svg" viewBox="0 0 32 32" id="pdf">
    <path class="a" d="M23,4H7V9.5a.5.5,0,0,0,1,0V5H23V21H19v4H8V20.5a.5.5,0,0,0-1,0V26H21V25H20V22h3v1h1V4Z"/>
    <rect class="a" x="21" y="24.0002" width="1" height="1"/>
    <rect class="a" x="22" y="23.0002" width="1" height="1"/>
    <path class="a" d="M16.32,15.01c0-2.86-1.72-3.42-3.54-3.42h-1.7V18.5h1.88C14.61,18.5,16.32,17.81,16.32,15.01Zm-3.27,2.5H12.4V12.58h.61c1.02,0,1.92.35,1.92,2.43C14.93,17.05,14.08,17.51,13.05,17.51Z"/>
    <path class="a" d="M10.01,13.79c0-1.49-1.06-2.2-2.8-2.2H5.17V18.5H6.49V16.09H7.3C8.86,16.09,10.01,15.38,10.01,13.79ZM6.49,15.1V12.56H7.2c.9,0,1.43.36,1.43,1.23,0,1.01-.55,1.31-1.43,1.31Z"/>
    <polygon class="a" points="21.33 12.57 21.47 11.59 17.56 11.59 17.56 18.5 18.88 18.5 18.88 15.62 21.01 15.62 21.01 14.64 18.88 14.64 18.88 12.57 21.33 12.57"/>
</svg>
