<svg width="32" height="32" class="hidden" preserveAspectRatio="xMidYMin" xmlns="http://www.w3.org/2000/svg" viewBox="0 0 32 32" id="waiting-approval">
    <rect class="a" x="7" y="19" width="5" height="1"/>
    <polygon class="a" points="12 11.31 12 11 7 11 7 11.31 9.5 13.14 12 11.31"/>
    <path class="a" d="M4,9H5v3.33L8.65,15,5,17.67V21H4v1H15V21H14V17.67L10.34,15,14,12.33V9h1V8H4Zm9,9.18V21H6V18.18l3.5-2.56ZM6,9h7v2.82L9.5,14.38,6,11.82Z"/>
    <path class="a" d="M25.3408,12.0939a1.0419,1.0419,0,0,0-1.4512.2578l-4.0986,5.87-1.9131-2.1338a1.0429,1.0429,0,1,0-1.5527,1.3926l2.791,3.1123a1.046,1.046,0,0,0,.7764.3457c.02,0,.042,0,.0635-.002a1.0392,1.0392,0,0,0,.791-.4434l4.8515-6.9482A1.0419,1.0419,0,0,0,25.3408,12.0939Z"/>
</svg>
