<svg id="list-add" xmlns="http://www.w3.org/2000/svg" width="32" height="32"><path fill-rule="evenodd" d="M12.5 6.5a.5.5 0 0 1 .5.5v2h2.5V7a.5.5 0 0 1 1 0v2H19V7a.5.5 0 0 1 1 0v2h1a1 1 0 0 1 1 1v1a4.978 4.978 0 0 0-3 1h-6.5a.5.5 0 0 0 0 1H18a4.977 4.977 0 0 0-.9 2h-4.6a.5.5 0 0 0 0 1H17a5 5 0 0 0 5 5v1a1 1 0 0 1-1 1H11a1 1 0 0 1-1-1V10a1 1 0 0 1 1-1h1V7a.5.5 0 0 1 .5-.5Zm0 11.5a.5.5 0 0 0 0 1h4a.5.5 0 0 0 0-1h-4Z" clip-rule="evenodd"/><path fill-rule="evenodd" d="M22 12.5a.5.5 0 0 1 .5.5v2.5H25a.5.5 0 0 1 0 1h-2.5V19a.5.5 0 0 1-1 0v-2.5H19a.5.5 0 0 1 0-1h2.5V13a.5.5 0 0 1 .5-.5Z" clip-rule="evenodd"/></svg>